<svg id="Schöpfung" xmlns="http://www.w3.org/2000/svg" xmlns:xlink="http://www.w3.org/1999/xlink" width="13944.848" height="6885.109" viewBox="0 0 20209.925 9978.419">
  <defs>
    <style>
      .cls-1 {
        filter: url(#filter);
      }

      .cls-10, .cls-11, .cls-12, .cls-13, .cls-14, .cls-2, .cls-3, .cls-4, .cls-7, .cls-8 {
        fill: none;
      }

      .cls-10, .cls-11, .cls-12, .cls-13, .cls-14, .cls-2, .cls-3, .cls-4, .cls-5, .cls-6, .cls-7, .cls-8 {
        stroke: #000;
      }

      .cls-10, .cls-12, .cls-14, .cls-2, .cls-3, .cls-4, .cls-5, .cls-8 {
        stroke-linecap: round;
      }

      .cls-12, .cls-13, .cls-2, .cls-4, .cls-8 {
        stroke-linejoin: round;
      }

      .cls-2, .cls-3 {
        stroke-width: 32.335px;
      }

      .cls-10, .cls-11, .cls-12, .cls-13, .cls-14, .cls-2, .cls-3, .cls-4, .cls-5, .cls-6, .cls-7, .cls-8, .cls-9 {
        fill-rule: evenodd;
      }

      .cls-4, .cls-7 {
        stroke-width: 15.276px;
      }

      .cls-5, .cls-6 {
        stroke-width: 1px;
      }

      .cls-8 {
        stroke-width: 16.167px;
      }

      .cls-10, .cls-11, .cls-12 {
        stroke-width: 30.552px;
      }

      .cls-13, .cls-14 {
        stroke-width: 64.67px;
      }
    </style>
    <filter id="filter" filterUnits="userSpaceOnUse">
      <feOffset result="offset" dx="19.633" dy="-3.816" in="SourceAlpha"/>
      <feGaussianBlur result="blur" stdDeviation="8.66"/>
      <feFlood result="flood" flood-opacity="0.3"/>
      <feComposite result="composite" operator="in" in2="blur"/>
      <feBlend result="blend" in="SourceGraphic"/>
    </filter>
  </defs>
  <g id="Mensch_dünner" data-name="Mensch dünner" class="cls-1">
    <g id="Beine">
      <path class="cls-2" d="M13449.3,9473.62s-2.3-39.17,18.7-60.39c7.1-7.22,16.6-19.17,27.9-21.14,13.2-2.3,27.9,6.04,27.9,6.04" transform="translate(-693.875 -344.281)"/>
      <path class="cls-3" d="M11046.4,6486.77v21.78c0,8.48,1.3,144.99-14.4,262.84-14.4,107.61-46.9,215.59-46.9,215.59" transform="translate(-693.875 -344.281)"/>
      <path class="cls-2" d="M11223,6485.16s-0.6.75,3.9,12.96c23.7,64.28,77.2,231.21,165.1,381.96,122.9,210.87,297.9,398.54,297.9,398.54" transform="translate(-693.875 -344.281)"/>
      <path class="cls-2" d="M11680.6,5349.32s33.3,181.64,34.1,416.66c0.4,110.39-23.2,235.74-24.8,365.33-1.3,100.37,18,176.24,31,262.67,12.6,83.76,18.8,178.17,18.6,268.71-0.6,312.29-52.7,612.91-52.7,612.91" transform="translate(-693.875 -344.281)"/>
      <path class="cls-2" d="M11460.2,8211.57l-468.5-12.08" transform="translate(-693.875 -344.281)"/>
      <path class="cls-2" d="M10768.3,8196.47s-84.9,16.89-170.7,15.1c-124.2-2.59-263.8-24.15-263.8-24.15" transform="translate(-693.875 -344.281)"/>
      <path class="cls-3" d="M10981.5,6192.49s-123.1,224.66-247.4,416.27c-76.3,117.63-179.3,198.33-263.6,266.76-101.9,82.78-151.7,149.38-151.7,149.38" transform="translate(-693.875 -344.281)"/>
      <path id="Form_87" data-name="Form 87" class="cls-3" d="M10273.2,6916.67s-36.5,52.79-76.8,78.18c-50.2,31.54-106.5,37.03-106.5,37.03s-54.2,45.26-79.6,58.97c-25.38,13.72-103.62,31.55-103.62,31.55s-26.95,69.64-76.12,135.1c-32.49,43.24-84.38,75.58-109.95,117.26-33.56,54.71-31.02,101.5-31.02,101.5s-56.77,8.98-80.34,54.86c-32.7,63.63-18.33,161.84-18.33,161.84" transform="translate(-693.875 -344.281)"/>
      <path id="Form_88" data-name="Form 88" class="cls-3" d="M9954.6,7446.08s15.5,79.1-29.6,115.9c-42.2,34.44-145.19,26.75-145.19,26.75" transform="translate(-693.875 -344.281)"/>
      <path id="Form_89" data-name="Form 89" class="cls-3" d="M9985.62,7511.92h47.88" transform="translate(-693.875 -344.281)"/>
      <path id="Form_90" data-name="Form 90" class="cls-3" d="M9768.53,7613.41l-47.92,2.75" transform="translate(-693.875 -344.281)"/>
      <path id="Form_91" data-name="Form 91" class="cls-3" d="M9867.21,7624.39s-23.38,59.8-68.37,61.72c-124.31,5.29-162.81,58.97-162.81,58.97" transform="translate(-693.875 -344.281)"/>
      <path id="Form_92" data-name="Form 92" class="cls-3" d="M10797.6,7317.16s2.9,64.48-19.8,91.21c-23.8,28.1-73.3,18.51-73.3,18.51s-177,139.85-154.3,255.11c22.1,112.42-2.9,210.77,29.6,289.4,21.6,52.38,74,100.12,74,100.12" transform="translate(-693.875 -344.281)"/>
      <path id="Form_93" data-name="Form 93" class="cls-3" d="M10422.6,7629.87s28.5,5.32,43,47.32-3.6,121.12,4.9,166.64c7.2,37.98,42.3,46.64,42.3,46.64" transform="translate(-693.875 -344.281)"/>
      <path id="Form_94" data-name="Form 94" class="cls-3" d="M10456.4,7926.12s-10.4,51.15-7,89.84c3.6,40.8,21.1,69.26,21.1,69.26" transform="translate(-693.875 -344.281)"/>
      <path id="Form_95" data-name="Form 95" class="cls-3" d="M10549.5,8027.62s1.6,68.66,21.8,114.52c17.7,40.16,54.3,58.29,54.3,58.29l-14.1,79.55" transform="translate(-693.875 -344.281)"/>
      <path id="Form_96" data-name="Form 96" class="cls-3" d="M10775,7736.85s-0.4,62.48,14.8,106.98c12.7,37.11,41.6,57.61,41.6,57.61" transform="translate(-693.875 -344.281)"/>
      <path id="Form_97" data-name="Form 97" class="cls-3" d="M11307.1,7226.64s-110.2,194.43-139.5,359.34c-19.2,107.92,38,211.22,38,211.22s-14.6,128.77,32.5,150.87c31.5,14.8,131.1-74.06,131.1-74.06" transform="translate(-693.875 -344.281)"/>
      <path id="Form_98" data-name="Form 98" class="cls-3" d="M11276.1,7978.24s-27.9,62.93-11.3,94.64c15.8,29.96,76.2,28.8,76.2,28.8" transform="translate(-693.875 -344.281)"/>
      <path id="Form_99" data-name="Form 99" class="cls-3" d="M11040,7980.99l58.5,208.47" transform="translate(-693.875 -344.281)"/>
      <path id="Form_100" data-name="Form 100" class="cls-3" d="M11267.7,8153.8l64.8,178.3" transform="translate(-693.875 -344.281)"/>
      <path id="Form_101" data-name="Form 101" class="cls-3" d="M11372,8129.11l19.7,41.15" transform="translate(-693.875 -344.281)"/>
      <path id="Form_102" data-name="Form 102" class="cls-3" d="M11183.1,8343.08s107.9,287.99,114.2,578.1c6.4,299.51-88.8,601.42-88.8,601.42" transform="translate(-693.875 -344.281)"/>
      <path id="Form_103" data-name="Form 103" class="cls-3" d="M10462.1,8455.54s-24.4,217.08-14.8,440.95c10.1,237.92,54.2,483.47,54.2,483.47" transform="translate(-693.875 -344.281)"/>
      <path id="Form_104" data-name="Form 104" class="cls-3" d="M9046.81,8428.11s-58.52,116.82-107.84,248.25c-47.93,127.74-86.69,270.19-86.69,270.19" transform="translate(-693.875 -344.281)"/>
      <path id="Form_105" data-name="Form 105" class="cls-3" d="M9137.02,8060.54l-124.05,351.11" transform="translate(-693.875 -344.281)"/>
      <path id="Form_106" data-name="Form 106" class="cls-3" d="M11146.4,8946.55s-45.7,159.66-49.3,307.23c-3.4,140.27,35.2,268.82,35.2,268.82" transform="translate(-693.875 -344.281)"/>
      <path id="Form_107" data-name="Form 107" class="cls-3" d="M8959.41,9198.92l-36.65,71.32" transform="translate(-693.875 -344.281)"/>
      <path id="Form_108" data-name="Form 108" class="cls-3" d="M8804.35,9193.43l-93.03,27.43" transform="translate(-693.875 -344.281)"/>
      <path id="Form_109" data-name="Form 109" class="cls-3" d="M8998.88,9283.95l-11.28,71.33" transform="translate(-693.875 -344.281)"/>
      <path id="Form_110" data-name="Form 110" class="cls-3" d="M8629.56,9366.25l-31.01,54.86" transform="translate(-693.875 -344.281)"/>
      <path id="Form_111" data-name="Form 111" class="cls-3" d="M8573.17,9314.13l-28.19,71.32" transform="translate(-693.875 -344.281)"/>
      <path id="Form_112" data-name="Form 112" class="cls-3" d="M8903.02,9473.23l-25.37,60.35" transform="translate(-693.875 -344.281)"/>
      <path id="Form_113" data-name="Form 113" class="cls-3" d="M8733.87,9401.91s-85.88,50.6-28.19,87.78c50.18,32.34,121.22-10.98,121.22-10.98" transform="translate(-693.875 -344.281)"/>
      <path id="Form_114" data-name="Form 114" class="cls-3" d="M10682,9901.15l-33.9,68.58" transform="translate(-693.875 -344.281)"/>
      <path id="Form_115" data-name="Form 115" class="cls-3" d="M10696.1,10104.1l-2.9,54.9" transform="translate(-693.875 -344.281)"/>
      <path id="Form_116" data-name="Form 116" class="cls-3" d="M10763.7,10104.1l-5.6,79.6" transform="translate(-693.875 -344.281)"/>
      <path id="Form_117" data-name="Form 117" class="cls-3" d="M10853.9,10120.6l-16.9,79.5" transform="translate(-693.875 -344.281)"/>
      <path id="Form_118" data-name="Form 118" class="cls-3" d="M10907.5,10126.1l81.8,87.8" transform="translate(-693.875 -344.281)"/>
      <path id="Form_119" data-name="Form 119" class="cls-3" d="M11006.2,10186.4s25.4-20.5,45.1-31.5,61.3-1.4,61.3-1.4" transform="translate(-693.875 -344.281)"/>
      <path id="Form_120" data-name="Form 120" class="cls-3" d="M10752.5,9843.54v52.12" transform="translate(-693.875 -344.281)"/>
      <path id="Form_121" data-name="Form 121" class="cls-3" d="M10794.7,9832.57c5.4,10.67,19.8,65.84,19.8,65.84" transform="translate(-693.875 -344.281)"/>
      <path id="Form_122" data-name="Form 122" class="cls-3" d="M10842.7,9832.57l19.7,46.63" transform="translate(-693.875 -344.281)"/>
      <path id="Form_123" data-name="Form 123" class="cls-3" d="M10901.9,9860l67.6,68.58" transform="translate(-693.875 -344.281)"/>
      <path id="Form_124" data-name="Form 124" class="cls-3" d="M11332.5,9807.88l19.7,101.5" transform="translate(-693.875 -344.281)"/>
      <path id="Form_125" data-name="Form 125" class="cls-3" d="M11380.4,9818.86l33.9,87.78" transform="translate(-693.875 -344.281)"/>
      <path id="Form_126" data-name="Form 126" class="cls-3" d="M11467.8,9807.88l8.5,63.1" transform="translate(-693.875 -344.281)"/>
      <path id="Form_127" data-name="Form 127" class="cls-3" d="M11200,9761.25s3.6,90.05,20.4,157.73c15.6,62.41,44.4,102.82,44.4,102.82" transform="translate(-693.875 -344.281)"/>
      <path id="Form_128" data-name="Form 128" class="cls-3" d="M11341,9986.19l-5.7,68.61" transform="translate(-693.875 -344.281)"/>
      <path id="Form_129" data-name="Form 129" class="cls-3" d="M12113.4,10098.7s31.1,30.8,70.5,36.3c39.5,5.5,62-3.4,62-3.4" transform="translate(-693.875 -344.281)"/>
      <path id="Form_130" data-name="Form 130" class="cls-3" d="M11856.9,7185.49s-3.9,143.02,37.3,240.02c32.4,75.97,112.1,111.1,112.1,111.1s37.5,125.81,76.1,116.58c41.6-9.94,84.6-154.99,84.6-154.99" transform="translate(-693.875 -344.281)"/>
      <path id="Form_131" data-name="Form 131" class="cls-3" d="M12116.3,7668.28s31.9,56.19,76.1,73.37c40.2,15.67,93-7.54,93-7.54" transform="translate(-693.875 -344.281)"/>
      <path id="Form_132" data-name="Form 132" class="cls-3" d="M12164.2,7747.83s22.3,82.77,69.8,124.12c47,40.94,119.1,40.46,119.1,40.46" transform="translate(-693.875 -344.281)"/>
      <path id="Form_133" data-name="Form 133" class="cls-3" d="M12003.5,7871.26s324.1,171.26,544.8,554.79c165.6,287.75,256.5,754.96,328.5,995.06,42.4,141.65,102.1,145.38,102.1,145.38" transform="translate(-693.875 -344.281)"/>
      <path id="Form_134" data-name="Form 134" class="cls-3" d="M12370,8472s31.8,171.47,71.9,292.83c51.5,155.83,224.1,269.5,224.1,269.5" transform="translate(-693.875 -344.281)"/>
      <path id="Form_135" data-name="Form 135" class="cls-3" d="M13024.1,9415.62l25.3,85.04" transform="translate(-693.875 -344.281)"/>
      <path id="Form_136" data-name="Form 136" class="cls-3" d="M13041,9525.35l11.2,68.57" transform="translate(-693.875 -344.281)"/>
      <path id="Form_137" data-name="Form 137" class="cls-3" d="M13049.4,9344.3l56.4,43.89" transform="translate(-693.875 -344.281)"/>
      <path id="Form_138" data-name="Form 138" class="cls-3" d="M13105.8,9325.1l50.8,35.66" transform="translate(-693.875 -344.281)"/>
      <path id="Form_139" data-name="Form 139" class="cls-3" d="M13308.8,9470.48h84.6" transform="translate(-693.875 -344.281)"/>
      <path id="Form_140" data-name="Form 140" class="cls-3" d="M13308.8,9432.08l129.7-19.2" transform="translate(-693.875 -344.281)"/>
      <path id="Form_141" data-name="Form 141" class="cls-3" d="M13525.9,9374.48s42.5-16.95,72.6-4.12c27.6,11.81,43,53.49,43,53.49" transform="translate(-693.875 -344.281)"/>
      <path id="Form_142" data-name="Form 142" class="cls-3" d="M9427.4,8351.3l-169.15,277.06" transform="translate(-693.875 -344.281)"/>
    </g>
    <g id="Bauch">
      <path class="cls-3" d="M10786.9,5753.9s-79.4-48.25-124.2-132.85c-36.6-69.36-40.3-178.13-40.3-178.13" transform="translate(-693.875 -344.281)"/>
      <path class="cls-3" d="M11655.7,5322.15s-18.7,10.27-49.6,27.17c-17,9.27-43.1,11.28-59,36.23-30,47.24-32.2,135.83-58.9,196.25-45.9,103.89-108.6,175.12-108.6,175.12" transform="translate(-693.875 -344.281)"/>
      <path id="Form_57" data-name="Form 57" class="cls-3" d="M10732.7,5204.98s-21.8,93.22-3.5,158.42c19.7,70.38,79.6,113.15,79.6,113.15" transform="translate(-693.875 -344.281)"/>
      <path id="Form_58" data-name="Form 58" class="cls-3" d="M11377.6,5229.67s12.4,79.05-9.1,145.38c-22.2,68.06-78.3,123.44-78.3,123.44" transform="translate(-693.875 -344.281)"/>
      <path id="Form_59" data-name="Form 59" class="cls-3" d="M10408.5,5309.22s65.9,46.5,126.9,63.78c49,13.89,95.8-.69,95.8-0.69" transform="translate(-693.875 -344.281)"/>
      <path id="Form_60" data-name="Form 60" class="cls-3" d="M11673.6,5344.88l-62,49.38" transform="translate(-693.875 -344.281)"/>
      <path id="Form_61" data-name="Form 61" class="cls-3" d="M11783.6,5863.32s12.6,43.63,5.6,87.78c-7.1,44.99-33.8,90.52-33.8,90.52" transform="translate(-693.875 -344.281)"/>
      <path id="Form_62" data-name="Form 62" class="cls-3" d="M10307,6123.92l1369.5,5.48" transform="translate(-693.875 -344.281)"/>
      <path id="Form_63" data-name="Form 63" class="cls-3" d="M10273.2,5822.18s20.8,96.82,26.8,238.65c7.4,177.2-17.6,418.16-13.4,616.5,4,195.1,37.3,349.06,37.3,349.06" transform="translate(-693.875 -344.281)"/>
      <path id="Form_64" data-name="Form 64" class="cls-3" d="M10741.2,4845.64l-42.3,71.32,81.7,76.81,25.4-93.27Z" transform="translate(-693.875 -344.281)"/>
      <path id="Form_65" data-name="Form 65" class="cls-3" d="M11076.7,4840.15l-67.7,57.61,42.3,79.55,72.6-63.1Z" transform="translate(-693.875 -344.281)"/>
      <path id="Form_66" data-name="Form 66" class="cls-3" d="M11422.7,4848.38l-42.3,68.58,62.1,49.37,14.1-74.06Z" transform="translate(-693.875 -344.281)"/>
      <path id="Form_67" data-name="Form 67" class="cls-3" d="M10524.1,4815.46l-42.3,71.32" transform="translate(-693.875 -344.281)"/>
      <path id="Form_68" data-name="Form 68" class="cls-3" d="M11611.6,4815.46l50.8,68.58" transform="translate(-693.875 -344.281)"/>
      <path id="Form_69" data-name="Form 69" class="cls-3" d="M10935.7,6123.92s-37.6-7.71-69.1-30.86c-37.1-27.26-69-70.64-69-70.64" transform="translate(-693.875 -344.281)"/>
      <path id="Form_70" data-name="Form 70" class="cls-3" d="M10978,6132.15s14.3,42.42-3.5,102.86c-19,64.42-76,134.36-66.3,184.47,16.3,83.56,151.5,50.07,151.5,50.07" transform="translate(-693.875 -344.281)"/>
      <path id="Form_71" data-name="Form 71" class="cls-3" d="M11056.9,6154.09s8.7,59.48,6.4,74.06c-8.5,52.12-26.1,110.42-26.1,161.85,0,38.63,28.2,74.06,28.2,74.06" transform="translate(-693.875 -344.281)"/>
      <path id="Form_72" data-name="Form 72" class="cls-3" d="M11183.1,6211.7s-8.3,37.11-7.1,90.52c1.5,61.37,50.5,141.8-32.4,185.84-55.8,29.64-78.2-26.74-78.2-26.74" transform="translate(-693.875 -344.281)"/>
      <path id="Form_73" data-name="Form 73" class="cls-3" d="M11239.5,6145.86a950.833,950.833,0,0,0,0,122.75c4.2,64.56,17.7,139.71-.7,185.85-30.8,77.01-137.5,37.03-137.5,37.03" transform="translate(-693.875 -344.281)"/>
      <path id="Form_74" data-name="Form 74" class="cls-3" d="M11259.2,6203.47s81.5,136.29,117.7,272.93c15.2,57.21,71.2,86.41,71.2,86.41" transform="translate(-693.875 -344.281)"/>
      <path id="Form_75" data-name="Form 75" class="cls-3" d="M11276.1,6121.17s48.5-27.68,79-67.89c28.7-37.89,39.4-88.46,39.4-88.46" transform="translate(-693.875 -344.281)"/>
      <path id="Form_76" data-name="Form 76" class="cls-3" d="M11107,6112.94s17.5-23.13,14.1-54.17c-3-26.85-27.5-59.56-23.3-89.15,5.2-36.58,40.2-73.38,40.2-73.38" transform="translate(-693.875 -344.281)"/>
      <path id="Form_77" data-name="Form 77" class="cls-3" d="M11256.4,5912.7c10.4,4.13,58.6,42.19,53.6,96.01-4.7,49.47-62.1,115.21-62.1,115.21" transform="translate(-693.875 -344.281)"/>
      <path id="Form_78" data-name="Form 78" class="cls-3" d="M11017.5,6110.2l-50.8-68.58" transform="translate(-693.875 -344.281)"/>
      <path id="Form_79" data-name="Form 79" class="cls-3" d="M10952.6,5912.7c44.8,27.12,90.2,123.44,90.2,123.44" transform="translate(-693.875 -344.281)"/>
      <path id="Form_80" data-name="Form 80" class="cls-3" d="M10828.6,5868.81s-9.9,34.52-8.5,67.89c1.4,31,14.1,61.03,14.1,61.03" transform="translate(-693.875 -344.281)"/>
      <path id="Form_81" data-name="Form 81" class="cls-3" d="M11006.2,5888.01l78.9,104.24" transform="translate(-693.875 -344.281)"/>
      <path id="Form_82" data-name="Form 82" class="cls-3" d="M11157.7,5907.21l8.5,106.98" transform="translate(-693.875 -344.281)"/>
      <path id="Form_83" data-name="Form 83" class="cls-3" d="M11259.2,5948.36s2.5,19.82-8.4,41.83c-10.2,20.45-33.9,43.2-33.9,43.2" transform="translate(-693.875 -344.281)"/>
      <path id="Form_84" data-name="Form 84" class="cls-3" d="M11247.9,5794.75l2.9,79.54" transform="translate(-693.875 -344.281)"/>
      <path id="Form_85" data-name="Form 85" class="cls-3" d="M11355.1,5942.87l-31,96.01" transform="translate(-693.875 -344.281)"/>
      <path id="Form_86" data-name="Form 86" class="cls-3" d="M10862.4,5915.44c5.3,10.67,56.4,134.41,56.4,134.41" transform="translate(-693.875 -344.281)"/>
    </g>
    <g id="Brust">
      <path class="cls-4" d="M11295.8,3096.96s-18.8,94.64-55.9,184.17c-40.3,97.34-99.3,190.22-99.3,190.22l24.8,60.38s-45.1.44-71.3,15.1c-34.7,19.39-52.8,54.35-52.8,54.35s-5-31.77-27.9-48.31c-25.1-18.11-68.3-21.14-68.3-21.14" transform="translate(-693.875 -344.281)"/>
      <path class="cls-4" d="M11568.9,3290.19l-43.5,84.54s-15-3.52-37.2,0c-2.5.39-15.5,0-46.6,3.02-42.4,4.13-68.2,21.14-68.2,21.14" transform="translate(-693.875 -344.281)"/>
      <path class="cls-4" d="M10802.4,3196.6s84.2,121.08,127.2,208.32c31,62.88-24.8,120.77-24.8,120.77" transform="translate(-693.875 -344.281)"/>
      <path class="cls-4" d="M11568.9,3290.19l62,78.5" transform="translate(-693.875 -344.281)"/>
      <path class="cls-4" d="M12046.7,3359.64s-24.3,128.67-83.8,229.46c-40.2,68.24-41.4,65.24-74.8,96.14-17.8,16.39-63.2,25.78-63.2,25.78l-28.7,92.14" transform="translate(-693.875 -344.281)"/>
      <path class="cls-4" d="M9728.71,3483.42s69.76-65.71,211.01-108.69c63.58-19.33,176.08-9.08,243.28-29.55,40.1-12.19,84.2-27.71,126-27.81,40.4-.11,95.9,27.9,111.7,21.13,11.6-4.99,35.1-40.6,52.8-54.34,30.8-23.98,58.9-45.29,58.9-45.29" transform="translate(-693.875 -344.281)"/>
      <path class="cls-4" d="M9871.45,3127.15s53.17,72.97,124.03,180.3c44.32,67.19,114.82,141.57,124.22,239.38,12.9,133.71,148.9,208.33,148.9,208.33l94,140.7" transform="translate(-693.875 -344.281)"/>
      <path class="cls-4" d="M10520,3395.87l1052,6.04s20.7-33.26,108.6-54.35c26.5-6.37,80.2-4.22,114.8-9.06,36.9-5.16,90.1,26.31,142.7,18.12,57.9-9.02,92.3-30.33,121-27.18,260.3,28.61,446.9,175.12,446.9,175.12" transform="translate(-693.875 -344.281)"/>
      <path id="Form_49" data-name="Form 49" class="cls-4" d="M10749.6,4395.77s90.8-56.47,179.8-52.8c76.4,3.15,152.9,66.52,152.9,66.52" transform="translate(-693.875 -344.281)"/>
      <path id="Form_50" data-name="Form 50" class="cls-4" d="M10978,4332.68s115.8-45.79,107.8-120.7c-7-65.96-124.7-85.03-124.7-85.03" transform="translate(-693.875 -344.281)"/>
      <path id="Form_51" data-name="Form 51" class="cls-4" d="M11256.4,4126.95s-130.8-9.53-152.2,66.52c-22.9,81.14,16.9,144.7,16.9,144.7" transform="translate(-693.875 -344.281)"/>
      <path id="Form_52" data-name="Form 52" class="cls-4" d="M11095.7,4406.74s72.3-74.19,152.2-76.8c78.3-2.56,135.4,90.52,135.4,90.52" transform="translate(-693.875 -344.281)"/>
      <path id="Form_53" data-name="Form 53" class="cls-4" d="M11958.4,3825.21s-31.1,45.28-45.1,94.64c-8.4,29.55,5.3,60.37-9.2,84.35-40.1,66.25-103.6,81.6-103.6,81.6" transform="translate(-693.875 -344.281)"/>
      <path id="Form_54" data-name="Form 54" class="cls-4" d="M11062.6,3622.22l31,271.57" transform="translate(-693.875 -344.281)"/>
      <path id="Form_55" data-name="Form 55" class="cls-4" d="M10470.5,3685.31l397.5-137.15" transform="translate(-693.875 -344.281)"/>
      <path id="Form_56" data-name="Form 56" class="cls-4" d="M11239.5,3570.1l397.5,120.7" transform="translate(-693.875 -344.281)"/>
      <path id="Form_187" data-name="Form 187" class="cls-5" d="M11310,3191.56l101.4,115.2-39.4,24.69-76.1-82.29Z" transform="translate(-693.875 -344.281)"/>
      <path id="Form_188" data-name="Form 188" class="cls-6" d="M10729.9,3262.19l-155.1,106.98,31,24.69,135.4-106.98Z" transform="translate(-693.875 -344.281)"/>
      <path id="Form_189" data-name="Form 189" class="cls-7" d="M10859.6,3232.02s111.4,57.19,217.8,43.2c102.1-13.43,199.4-98.07,199.4-98.07" transform="translate(-693.875 -344.281)"/>
      <g id="Brust-2" data-name="Brust">
        <path id="Brust-3" data-name="Brust" class="cls-2" d="M9725.61,3477.39s80.68,54.34,130.33,69.44,115.51,20.39,176.86,57.36c36.4,21.92,55.7,93.54,96.2,117.76,45.8,27.34,90.7,120.54,121,166.05,273.7,410.66,576.8,341.54,725.9,217.69,84.7-70.34,87.4-176.93,87.4-176.93" transform="translate(-693.875 -344.281)"/>
        <path id="Brust-4" data-name="Brust" class="cls-2" d="M11149.9,3927.25s-16.6,110.29,60,170.9c138.2,109.39,462.2,161.04,566.9-152.78,0.3-1.05.9-2.03,1.3-3.06,14.9-34.37,25.4-72.22,54.5-81.48,51-16.2,61.5-43.16,102.4-66.42,59.3-33.66,121.3-101.4,183.1-141.91,12.2-7.98,48.9-38.21,121-69.44,64.1-27.72,133.7-33.35,198.6-54.35,60.1-19.43,123.8-55.49,133.5-51.32" transform="translate(-693.875 -344.281)"/>
      </g>
    </g>
    <g id="Arme">
      <path class="cls-8" d="M14249.9,3486.44l6.2,307.97" transform="translate(-693.875 -344.281)"/>
      <path class="cls-8" d="M8115.09,3435.12l12.41,314" transform="translate(-693.875 -344.281)"/>
      <path class="cls-8" d="M9213.59,3048.65s28.67,54.4,114.82,120.77c28,21.58,78.96,43.49,114.81,66.43,57.38,36.71,153.97,58.28,214.39,96.94,41.69,26.68,100.65,44.34,139.37,69.12,58.6,37.49,61.4,79.23,102.4,102.65,56.9,32.5,121.02,60.39,121.02,60.39" transform="translate(-693.875 -344.281)"/>
      <path class="cls-8" d="M9070.85,3574s32.07,2.41,65.16-15.09c37.95-20.07,77.58-60.39,77.58-60.39" transform="translate(-693.875 -344.281)"/>
      <path class="cls-8" d="M12040.5,3897.06l12.4-555.54s37.1-48.1,96.2-93.6c72.9-56.04,170.7-111.71,170.7-111.71" transform="translate(-693.875 -344.281)"/>
      <path class="cls-8" d="M9055.33,3456.25l15.52,353.25" transform="translate(-693.875 -344.281)"/>
      <path class="cls-8" d="M10020.4,3365.67l-6.2,501.2" transform="translate(-693.875 -344.281)"/>
      <path class="cls-8" d="M13067.7,3522.68l-18.7,320.04" transform="translate(-693.875 -344.281)"/>
      <path class="cls-8" d="M7938.21,3441.15l-9.31,265.7" transform="translate(-693.875 -344.281)"/>
      <path class="cls-8" d="M9129.81,3610.23s99.14,62.89,254.45,102.66c82.73,21.18,199.34,13.54,285.65,35.64,48.31,12.37,93.81,56.11,136.38,67.01,61.57,15.77,86.91,7.79,124.12,9.06,35.06,1.2,83.79,12.08,83.79,12.08" transform="translate(-693.875 -344.281)"/>
      <path id="Form_1" data-name="Form 1" class="cls-8" d="M8325.78,2860.33s-40.16-55.17-92.33-96.01c-68.27-53.45-169.86-109.72-169.86-109.72" transform="translate(-693.875 -344.281)"/>
      <path id="Form_4" data-name="Form 4" class="cls-8" d="M7998.75,3675.02l56.39,2.75" transform="translate(-693.875 -344.281)"/>
      <path id="Form_3" data-name="Form 3" class="cls-8" d="M7970.56,3647.59s27.05-12.43,50.04-13.71c26.15-1.46,68.37,13.71,68.37,13.71" transform="translate(-693.875 -344.281)"/>
      <path id="Form_2" data-name="Form 2" class="cls-8" d="M7984.66,3587.25l104.31,8.22" transform="translate(-693.875 -344.281)"/>
      <path id="Form_5" data-name="Form 5" class="cls-8" d="M12209.3,3853.33s81.6-19.52,158.6-25.38c84.8-6.45,165.6.69,165.6,0.69" transform="translate(-693.875 -344.281)"/>
      <path id="Form_6" data-name="Form 6" class="cls-8" d="M12462.3,3364.37s147.6-48.13,265.7-120.7c101.7-62.45,176.2-150.87,176.2-150.87" transform="translate(-693.875 -344.281)"/>
      <path id="Form_7" data-name="Form 7" class="cls-8" d="M12543.4,3742.92s137.4,6.79,249.5-6.18c85.9-9.94,153.6-40.46,153.6-40.46" transform="translate(-693.875 -344.281)"/>
      <path id="Form_9" data-name="Form 9" class="cls-8" d="M13214.4,3641.42s75.4,21.89,130.3,24c40.4,1.56,54-16.28,98-17.14,38.5-.75,74.1-27.72,104.3-30.17,54.1-4.39,90.2,15.08,90.2,15.08" transform="translate(-693.875 -344.281)"/>
      <path id="Form_10" data-name="Form 10" class="cls-8" d="M13958.6,3699.03l251-21.95" transform="translate(-693.875 -344.281)"/>
      <path id="Form_11" data-name="Form 11" class="cls-8" d="M14060.1,2618.25l59.2-24.69" transform="translate(-693.875 -344.281)"/>
      <path id="Form_12" data-name="Form 12" class="cls-8" d="M14048.9,2670.37l101.4-35.66" transform="translate(-693.875 -344.281)"/>
      <path id="Form_13" data-name="Form 13" class="cls-8" d="M14094,2695.06l73.3-27.43" transform="translate(-693.875 -344.281)"/>
      <path id="Form_14" data-name="Form 14" class="cls-8" d="M14374.5,2376.86s177.4-11.19,187.5-72.69c7.8-48.32-94.5-26.06-94.5-26.06" transform="translate(-693.875 -344.281)"/>
      <path id="Form_15" data-name="Form 15" class="cls-8" d="M14425.2,2448.18s22.4,44.43,32.4,83.66a172.626,172.626,0,0,1,4.3,58.98" transform="translate(-693.875 -344.281)"/>
      <path id="Form_16" data-name="Form 16" class="cls-8" d="M14495.7,2379.6s19.4,44.49,26.8,89.15c6.6,40.13,1.4,80.92,1.4,80.92" transform="translate(-693.875 -344.281)"/>
      <path id="Form_17" data-name="Form 17" class="cls-8" d="M14213.8,2626.48l11.3,63.09" transform="translate(-693.875 -344.281)"/>
      <path id="Form_18" data-name="Form 18" class="cls-8" d="M14323.7,2549.67s34.8-19.02,62.1-52.8c29-36.09,50.7-87.09,50.7-87.09" transform="translate(-693.875 -344.281)"/>
      <path id="Form_19" data-name="Form 19" class="cls-8" d="M14289.9,2533.22s50.8-44.65,67.7-64.47c16.9-19.96,8.4-37.03,8.4-37.03s38.5-6.46,63.5-22.63c21.3-13.82,29.6-37.72,29.6-37.72" transform="translate(-693.875 -344.281)"/>
      <path id="Form_20" data-name="Form 20" class="cls-8" d="M14298.4,2324.74s28.2-6.07,51.4-20.57c13.6-8.52,27.5-28.81,27.5-28.81s41.4,4.14,69.8-11.65c30.7-17.08,48.6-54.18,48.6-54.18s35.4,0.9,60.6-7.54c19-6.35,29.6-22.63,29.6-22.63s42.6,0.39,67-15.78c18-12,19.7-41.83,19.7-41.83" transform="translate(-693.875 -344.281)"/>
      <path id="Form_21" data-name="Form 21" class="cls-8" d="M14461.9,3528.96s39.2,12.33,75.4,13.71c35.7,1.36,68.4-8.23,68.4-8.23s76.7,22.58,165.6,29.49c104,8.08,222.7.68,222.7,0.68" transform="translate(-693.875 -344.281)"/>
      <path id="Form_22" data-name="Form 22" class="cls-8" d="M14490.1,3421.98s51.9,9.34,101.5,6.17c32.1-2.06,69.7-17.15,69.7-17.15l42.3,30.18,73.3,16.45,36.7-21.94s19.7,20.57,59.2,31.55c39.4,10.97,81.7,9.6,81.7,9.6s26.6,11.83,54.3,15.77c30,4.27,61.3.69,61.3,0.69" transform="translate(-693.875 -344.281)"/>
      <path id="Form_23" data-name="Form 23" class="cls-8" d="M14619,3559.13l-72.6,211.22" transform="translate(-693.875 -344.281)"/>
      <path id="Form_24" data-name="Form 24" class="cls-8" d="M14681.1,3578.33l-14.1,57.61" transform="translate(-693.875 -344.281)"/>
      <path id="Form_25" data-name="Form 25" class="cls-8" d="M14658.5,3699.03l-8.4,52.12" transform="translate(-693.875 -344.281)"/>
      <path id="Form_26" data-name="Form 26" class="cls-8" d="M14602.8,2483.84l13.4,38.4" transform="translate(-693.875 -344.281)"/>
      <path id="Form_27" data-name="Form 27" class="cls-8" d="M14672.6,2453.66l11.3,24.69" transform="translate(-693.875 -344.281)"/>
      <path id="Form_28" data-name="Form 28" class="cls-8" d="M14765.6,3463.12s-27.2,41.26-45.8,32.92c-18-8.12-27.5-65.84-27.5-65.84" transform="translate(-693.875 -344.281)"/>
      <path id="Form_29" data-name="Form 29" class="cls-8" d="M14774.1,3487.81l-36.6,65.83" transform="translate(-693.875 -344.281)"/>
      <path id="Form_30" data-name="Form 30" class="cls-8" d="M14583.1,3556.39l-25.4,46.63" transform="translate(-693.875 -344.281)"/>
      <path id="Form_31" data-name="Form 31" class="cls-8" d="M14875.6,3600.27l-14.1,38.41" transform="translate(-693.875 -344.281)"/>
      <path id="Form_32" data-name="Form 32" class="cls-8" d="M14791,3616.73l-5.6,32.92" transform="translate(-693.875 -344.281)"/>
      <path id="Form_33" data-name="Form 33" class="cls-8" d="M14202.5,3718.23l-39.5,13.71" transform="translate(-693.875 -344.281)"/>
      <path id="Form_34" data-name="Form 34" class="cls-8" d="M7248.83,3600.27h104.31" transform="translate(-693.875 -344.281)"/>
      <path id="Form_35" data-name="Form 35" class="cls-8" d="M7254.47,3641.42l101.49-16.46" transform="translate(-693.875 -344.281)"/>
      <path id="Form_36" data-name="Form 36" class="cls-8" d="M7536.4,3677.08l-19.74-79.55" transform="translate(-693.875 -344.281)"/>
      <path id="Form_37" data-name="Form 37" class="cls-8" d="M7687.93,3372.6l-179.73-8.23" transform="translate(-693.875 -344.281)"/>
      <path id="Form_38" data-name="Form 38" class="cls-8" d="M7403.89,3400.03s29.61,43.89,43.7,60.35,83.17,30.17,83.17,30.17" transform="translate(-693.875 -344.281)"/>
      <path id="Form_39" data-name="Form 39" class="cls-8" d="M7505.38,3375.34l-28.19,41.15" transform="translate(-693.875 -344.281)"/>
      <path id="Form_40" data-name="Form 40" class="cls-8" d="M8497.05,2681.34c14.26,2.44,234,183.79,234,183.79" transform="translate(-693.875 -344.281)"/>
      <path id="Form_41" data-name="Form 41" class="cls-8" d="M9148.3,2961.14l76.12-13.72" transform="translate(-693.875 -344.281)"/>
      <path id="Form_42" data-name="Form 42" class="cls-8" d="M9148.3,3005.02l33.83-8.22" transform="translate(-693.875 -344.281)"/>
      <path id="Form_43" data-name="Form 43" class="cls-8" d="M7930.38,2322l-214.26-71.32s-17.89,23.5-42.29,28.11c-26.28,4.98-59.2-8.91-59.2-8.91" transform="translate(-693.875 -344.281)"/>
      <path id="Form_44" data-name="Form 44" class="cls-8" d="M8057.25,2437.21l-16.91,52.11" transform="translate(-693.875 -344.281)"/>
      <path id="Form_45" data-name="Form 45" class="cls-8" d="M8062.89,2604.53l84.58,35.67" transform="translate(-693.875 -344.281)"/>
      <path id="Form_46" data-name="Form 46" class="cls-8" d="M7693.57,2470.12l-8.46,76.81" transform="translate(-693.875 -344.281)"/>
      <path id="Form_47" data-name="Form 47" class="cls-8" d="M10309.8,3452.15s207.6-14.28,231.2,86.41c26,111.18-169.1,152.24-169.1,152.24" transform="translate(-693.875 -344.281)"/>
      <path id="Form_48" data-name="Form 48" class="cls-8" d="M11676.5,3411s-84.4,60.49-69.8,122.07c15,63.21,129,127.55,129,127.55" transform="translate(-693.875 -344.281)"/>
      <path id="Form_8" data-name="Form 8" class="cls-8" d="M13445.5,2854.16c19.1-23.53,75.4-29.3,141.7-118.64,52-70.1,158-75.52,179.7-81.61" transform="translate(-693.875 -344.281)"/>
    </g>
    <g id="Schatten">
      <path id="Form_147" data-name="Form 147" class="cls-9" d="M14320.9,3472.72l33.8,137.84s264.9-37.91,155.8,35.66c-19.5,13.12-40,29.4-64.8,37.72-39,13.03-83.4,8.14-102.2,21.26-67.7,47.17,117,100.81,117,100.81l-198.8-12.35-8.5-218.07,36-100.81Z" transform="translate(-693.875 -344.281)"/>
      <path id="Form_148" data-name="Form 148" class="cls-9" d="M14206.7,2481.1s-96.4,31.71-40.8,102.18c57.8,73.48,142.3-3.43,142.3-3.43s-2.8-37.76-27.5-61.72C14254.7,2492.75,14206.7,2481.1,14206.7,2481.1Z" transform="translate(-693.875 -344.281)"/>
      <path id="Form_149" data-name="Form 149" class="cls-9" d="M11813.9,4390.28s0.5-90.54-7.8-154.98c-5.5-43.06-37.8-78.36-38-124.81-0.5-103.47,39.5-181.04,39.5-181.04s0.3,108.84,40.1,124.12c34.9,13.39,110-66.52,110-66.52s-38.1,47.76-64.2,115.21c-20.8,53.99-26.2,132.59-41.5,184.47A928.461,928.461,0,0,1,11813.9,4390.28Z" transform="translate(-693.875 -344.281)"/>
      <path id="Form_143" data-name="Form 143" class="cls-9" d="M7561.77,2327.48a42.046,42.046,0,0,1,6.34-30.86c9.2-13.66,32.42-26.74,32.42-26.74l90.22,5.48s-15.63,45.8,16.21,76.12c34.32,32.68,116.29,50.07,116.29,50.07s1.87,78.59,36.65,113.15c32.82,32.59,98.68,21.26,98.68,21.26l16.91,41.14s-101.89,2.01-64.84,101.5c4.03,10.81-146.6-82.3-146.6-82.3s-22.97-39.23-29.6-74.06c-7.43-38.99,1.41-74.06,1.41-74.06s-25.58-16.59-39.47,5.48c-16.54,26.26-21.85,91.9-21.85,91.9l-35.95-24.69,23.97-78.18-45.11-27.43-14.1-43.89Z" transform="translate(-693.875 -344.281)"/>
      <path id="Form_145" data-name="Form 145" class="cls-9" d="M7332.7,3511.81a535.33,535.33,0,0,1,100.09-39.09c55.86-15.38,124.05-22.63,124.05-22.63s95.13,12.74,126.16,37.72c30.28,24.39-3.53,61.03-3.53,61.03s-2.84,29.57,35.24,44.58c64.51,25.42,183.69,43.49,176.91,55.55-7.12,12.64-124.16-25.01-191.71-32.24-19.06-2.04-37.17,21.51-65.55,16.46-35.37-6.29-79.64-41.14-79.64-41.14l-52.86,28.8-143.78,10.28-6.35-34.97s13.18-17.85,9.17-35.66C7355.58,3536.95,7332.7,3511.81,7332.7,3511.81Z" transform="translate(-693.875 -344.281)"/>
      <path id="Form_146" data-name="Form 146" class="cls-9" d="M10238.6,4006.25v105.61s12.7,10.98,33.9,56.92c13.9,30.22,36.6,80.23,36.6,80.23s20.3-115.28,6.4-196.81C10309.1,4015.06,10238.7,3951.28,10238.6,4006.25Z" transform="translate(-693.875 -344.281)"/>
      <path id="Form_144" data-name="Form 144" class="cls-9" d="M7598.42,2129.3s58.22-1.05,116.29,3.42c47.67,3.68,97.27,13.03,97.27,13.03s-22.77,29.73-32.42,61.04c-9.38,30.4-5.64,62.4-5.64,62.4l-48.63-20.57s-11.54-32.68-38.77-58.29C7651.34,2157.24,7598.42,2129.3,7598.42,2129.3Z" transform="translate(-693.875 -344.281)"/>
    </g>
    <g id="Kopf">
      <g id="Schatten-2" data-name="Schatten">
        <path id="Schatten-3" data-name="Schatten" class="cls-9" d="M10783.5,2305.54c-0.3,10.34-99.4,168.7-99.4,168.7l-124.8,18.51-69.7,59.67,88.8,41.14-52.9,51.44,74,12.34-21.1,61.72-48.7,34.97-99.3-14.4-61.4,45.26,4.3,98.75,31.7,59.67-19.1,63.77,23.3,34.98,40.2-47.32,90.9,253.05-12.7,30.86-12.7,63.77s37.2-10.1,84.6-41.14c55.6-36.42,122.6-94.64,122.6-94.64s20.4,105.37,62.1,148.13c42.1,43.2,76.1,13.8,78.9-28.8,5.9-90.27-79.6-257.17-79.6-257.17l-36-209.84s89.7-80.69,59.2-106.98c-56.4-48.68-71.5-129.41-56.4-187.91,36.3-139.86,96.6-192.7,96.6-192.7s56-50.72,7-83.66C10816,2262.21,10783.6,2299.66,10783.5,2305.54Z" transform="translate(-693.875 -344.281)"/>
        <path id="Schatten-4" data-name="Schatten" class="cls-9" d="M10762.3,2918.62l84.6,45.26,82.5,16.46,12.6,41.14,107.9,22.63,160.7-55.54,143.8-201.62,59.2-49.38,10.5-51.43-105.7,49.38,42.3-195.45,105.7-47.32,8.5,131.67,97.2,22.63-99.3,41.15,63.4,37.03,23.3,63.78-38.1,61.72,2.1,78.17-19,72.01,46.5,32.92,93,16.46-124.7,178.98-133.2-16.45-74-150.19-84.6,26.75-57.1,61.72-33.8,26.74-57.1-20.57-38.1-10.29-35.9,16.46-38.1,16.46-74-57.61-50.7-32.91-86.7-24.69-59.2-127.56Z" transform="translate(-693.875 -344.281)"/>
        <path id="Auge" class="cls-9" d="M11002.7,2499.61s8.5,127.62-116.3,117.27c-100.3-8.31-82.5-123.44-82.5-123.44Z" transform="translate(-693.875 -344.281)"/>
        <path id="Auge-2" data-name="Auge" class="cls-9" d="M11128.1,2507.84s-2.3,116.39,99.4,119.32c91.1,2.63,86.7-117.26,86.7-117.26Z" transform="translate(-693.875 -344.281)"/>
        <path id="Form_152" data-name="Form 152" class="cls-9" d="M11020.3,2507.84l-8.5,226.3-65.5,34.98s12.5-62.26,28.9-120.01C10995.4,2577.69,11020.3,2507.84,11020.3,2507.84Z" transform="translate(-693.875 -344.281)"/>
        <path id="Form_153" data-name="Form 153" class="cls-9" d="M11009.7,2730.03l21.2,43.2,74-26.74,48.6-16.46,69.8,63.78-29.6,32.92-42.3-49.38-90.9,20.57-74.1,32.92-39.4-64.46Z" transform="translate(-693.875 -344.281)"/>
        <path id="Form_157" data-name="Form 157" class="cls-9" d="M11155.6,2953.59l-46.5-37.03-88.8,4.12h-114.2l-2.1-69.95-21.2-6.18-23.2,55.55-21.2-63.77,42.3-100.81-95.1,34.97,16.9,72.01,4.2,119.32,124.8,47.32,71.9-59.66,82.4-2.06,36,30.86Z" transform="translate(-693.875 -344.281)"/>
      </g>
      <path id="Form_159" data-name="Form 159" class="cls-10" d="M11176.7,2468.07l93.1-28.81" transform="translate(-693.875 -344.281)"/>
      <path id="Form_160" data-name="Form 160" class="cls-10" d="M10978,2400.18l190.3,4.11" transform="translate(-693.875 -344.281)"/>
      <path id="Form_166" data-name="Form 166" class="cls-10" d="M10789.8,2332.28l-86.7-14.4-42.3-22.63-42.3,32.92-57.1-16.46" transform="translate(-693.875 -344.281)"/>
      <path id="Form_167" data-name="Form 167" class="cls-10" d="M11166.2,2243.82s48.6-56.83,88.8-52.81c30.3,3.04,55,67.21,55,67.21" transform="translate(-693.875 -344.281)"/>
      <path id="Form_168" data-name="Form 168" class="cls-10" d="M11200,2177.98s61.7-32.31,110-12.34c43.4,17.98,74,88.46,74,88.46" transform="translate(-693.875 -344.281)"/>
      <path id="Form_169" data-name="Form 169" class="cls-10" d="M10772.9,2256.16s-52.8-4.8-93.8,1.37c-47.3,7.14-83.8,25.38-83.8,25.38" transform="translate(-693.875 -344.281)"/>
      <path id="Form_170" data-name="Form 170" class="cls-10" d="M10546.6,2632.65s-45.4-22.63-74-22.63c-40.2,0-67.6,22.63-67.6,22.63" transform="translate(-693.875 -344.281)"/>
      <path id="Form_171" data-name="Form 171" class="cls-10" d="M11284.6,2262.34s27.3,28.19,33.1,64.46c5.8,35.73-9.9,79.55-9.9,79.55" transform="translate(-693.875 -344.281)"/>
      <path id="Form_172" data-name="Form 172" class="cls-10" d="M11413.6,2262.34s18.5,37.7,14.1,80.23c-3,28.69-31.4,58.57-26.1,84.35,6.7,32.67,56.4,51.43,56.4,51.43" transform="translate(-693.875 -344.281)"/>
      <path id="Form_161" data-name="Form 161" class="cls-10" d="M11045.7,2149.18s-56.6-49.5-124.8-39.77c-93.7,13.35-207.2,87.09-207.2,87.09" transform="translate(-693.875 -344.281)"/>
      <path id="Form_162" data-name="Form 162" class="cls-10" d="M11071,2132.72s107.5-46.24,195.3-29.48c78.8,15.04,138.8,93.26,138.8,93.26" transform="translate(-693.875 -344.281)"/>
      <path id="Form_163" data-name="Form 163" class="cls-10" d="M11066.8,2231.47l82.5-61.72" transform="translate(-693.875 -344.281)"/>
      <path id="Form_164" data-name="Form 164" class="cls-10" d="M10950.5,2247.93s-48.9-46.24-87.4-43.2c-39.7,3.13-69.1,55.55-69.1,55.55" transform="translate(-693.875 -344.281)"/>
      <path id="Form_165" data-name="Form 165" class="cls-10" d="M10756,2387.83s-92.2-36.45-152.3-10.97c-40.3,17.12-80.1,57.57-109.2,81.6-36.6,30.14-98,75.44-98,75.44" transform="translate(-693.875 -344.281)"/>
      <path id="Form_158" data-name="Form 158" class="cls-11" d="M10986.4,2468.07s-43-23.64-83.1-31.55c-48-9.44-94.5-3.43-94.5-3.43" transform="translate(-693.875 -344.281)"/>
      <path id="Form_156" data-name="Form 156" class="cls-12" d="M10925.1,2893.93s62.8-20.81,122.7-23.32c62.7-2.63,124.7,27.44,124.7,27.44" transform="translate(-693.875 -344.281)"/>
      <path id="Form_173" data-name="Form 173" class="cls-10" d="M10956.8,3178.53s42.9,255.36,98.7,274.99c49.1,17.25,112.1-200.93,112.1-200.93" transform="translate(-693.875 -344.281)"/>
      <path id="Form_174" data-name="Form 174" class="cls-10" d="M11505.9,2388.52s77.6,51.12,48.6,87.78c-73.4,93-23.2,117.95-23.2,117.95" transform="translate(-693.875 -344.281)"/>
      <path id="Form_175" data-name="Form 175" class="cls-10" d="M11582,2577.79s41.7,9.18,60.6,34.29c12.9,17.06-12.6,57.06-7.7,74.75,5.1,18.55,40.1,14.4,40.1,14.4" transform="translate(-693.875 -344.281)"/>
      <path id="Form_176" data-name="Form 176" class="cls-10" d="M11579.9,2682.71s45.3,49.54,46.5,106.98c0.8,37.29-45.5,66.23-50,101.5-6.1,47.32,56.4,116.58,56.4,116.58" transform="translate(-693.875 -344.281)"/>
      <path id="Form_177" data-name="Form 177" class="cls-10" d="M11670.8,2781.46s-28.2,50.35-31,90.52c-2.5,36.83,20.4,63.78,20.4,63.78" transform="translate(-693.875 -344.281)"/>
      <path id="Form_178" data-name="Form 178" class="cls-10" d="M11588.4,2370s37.3,7.22,50,43.89c6.3,18.16-13.4,34.29-15.5,75.43s20.4,39.09,20.4,39.09" transform="translate(-693.875 -344.281)"/>
      <path id="Form_179" data-name="Form 179" class="cls-10" d="M10674.9,2431.72s-30.6-8.51-58.5,1.37c-21.5,7.62-40.8,36.26-59.9,47.32-23.3,13.51-44.4,8.91-44.4,8.91" transform="translate(-693.875 -344.281)"/>
      <path id="Form_180" data-name="Form 180" class="cls-10" d="M10573.4,2707.4s-22.6-22.15-49.3-30.17c-15.4-4.62-43.4,11.24-67.7,13.71-24.9,2.55-45.8-8.23-45.8-8.23" transform="translate(-693.875 -344.281)"/>
      <path id="Form_181" data-name="Form 181" class="cls-10" d="M11442.5,2174.56s31.6,26.5,38.7,60.34c4.8,22.78-8.2,57.4-9.8,87.78a201.32,201.32,0,0,0,7,63.78" transform="translate(-693.875 -344.281)"/>
      <path id="Form_182" data-name="Form 182" class="cls-10" d="M11000.5,2195.13s-19-27.72-52.1-35.66c-42.8-10.27-117,19.2-117,19.2" transform="translate(-693.875 -344.281)"/>
      <path id="Form_183" data-name="Form 183" class="cls-10" d="M10529.7,2340.51s-19.1,36.49-45.1,63.09c-28.8,29.49-64.8,49.38-64.8,49.38" transform="translate(-693.875 -344.281)"/>
      <path id="Form_184" data-name="Form 184" class="cls-10" d="M10910.3,2271.94l-64.8-19.21" transform="translate(-693.875 -344.281)"/>
      <path id="Form_185" data-name="Form 185" class="cls-10" d="M11203.5,2260.96l42.3-35.66" transform="translate(-693.875 -344.281)"/>
      <path id="Form_186" data-name="Form 186" class="cls-10" d="M11454.4,2400.86s24.8,16.85,37.4,37.72c11.3,18.8,10.6,41.83,10.6,41.83" transform="translate(-693.875 -344.281)"/>
      <path id="Form_191" data-name="Form 191" class="cls-10" d="M11550.3,2880.9l14.1,117.95" transform="translate(-693.875 -344.281)"/>
      <path id="Form_190" data-name="Form 190" class="cls-10" d="M11711,2804.1l-22.6,74.06" transform="translate(-693.875 -344.281)"/>
      <path id="Form_192" data-name="Form 192" class="cls-10" d="M11133,2079.92s28.2,5.49,53.6,2.74,47.9-13.71,47.9-13.71" transform="translate(-693.875 -344.281)"/>
      <path id="Form_193" data-name="Form 193" class="cls-10" d="M10904.7,2066.2s-26.6,18.04-57.1,27.43c-27.2,8.38-58.5,8.23-58.5,8.23" transform="translate(-693.875 -344.281)"/>
    </g>
    <path id="Körper" class="cls-2" d="M10541.7,3247.92s-137.8-102.67-307.2-141.9c-186.5-43.2-366.15,18.11-366.15,18.11s-145.32-107.02-313.42-153.98c-143.34-40.04-307.2-42.27-307.2-42.27s-21.89-15.38-55.86-54.34c-23.18-26.59-50.12-72.28-86.89-99.64-25.8-19.2-67.48-26.17-99.3-39.25-36.72-15.09-64.36-35.94-105.5-54.35-202.91-90.76-474.78-111.71-474.78-111.71s-81.33-28.22-170.67-75.48c-85.49-45.22-183.08-54.35-183.08-54.35s-23.6-22.16-37.24-54.34c-13.86-32.68-17.98-84.72-46.55-120.77-31.56-39.84-79.24-25.35-105.5-63.41-64.57-93.56-81.28-124.82-179.98-126.8-33.66-.68-58.96,21.13-58.96,21.13l-68.27,30.19s-28.39-8.56-52.75-18.11c-43.98-17.25-96.2-28.21-96.2-28.21s-0.23.06-.64,0.2c-5.14,1.68-44.8,14.51-5.57,52.16,11.89,11.41,44.42,26.36,71.38,42.27,40.91,24.15,96.19,51.33,96.19,51.33s12.35,7.39,15.52,15.09c5.48,13.33-15.52,27.18-15.52,27.18s-29.93-2.75-55.85-21.14c-16.34-11.59-31.76-23.15-46.55-33.21-20.1-13.68-34.13-6.04-34.13-6.04s-55.5,36.24,3.1,96.62c23.53,24.24,45.78,23.92,86.89,39.25,56.7,21.15,77.57,66.42,77.57,66.42s9.51,16.85-24.82,9.06c-21.69-4.92-43.9-26.94-65.17-36.23-31.78-13.88-52.75-9.06-52.75-9.06s-38.03,50.32,71.37,102.66c31.04,14.84,54.41,35.63,86.89,54.34,19.07,10.99,42.76,15.44,65.17,27.17,22.09,11.58,42.86,30.39,65.16,45.29,34.5,23.06,57.71,65.65,105.51,87.56,35.03,16.07,71.22-4.67,108.6,12.08,41.81,18.73,18.65,30.41,58.96,51.33,32.04,16.62,82.46,27.85,130.33,45.29,30.03,10.93,62.97,38.98,89.99,51.32,19.05,8.7,33.29,2.07,49.65,9.06,29.76,12.71,27.82,28.1,46.55,45.29,20.62,18.92,61.63,40.07,89.99,63.4,62.61,51.51,184.14,104.47,257.56,135.87,60.07,25.69,140.19,31.94,201.7,54.35,23.03,8.38,36.58,29.59,55.86,42.27,12.09,7.95,29.44,9.37,43.44,12.07,45.68,8.81,82.2-5.42,124.12,3.02,30.98,6.24,56.24,25.99,83.79,39.25,58.27,28.05,113.47,56.4,161.36,72.46,56.55,18.97,103.8,7.84,148.95,27.18,26.19,11.21,27.62,24.62,43.44,36.23,20.87,15.31,53.65,28.5,71.37,39.25,57.62,34.95,93.1,48.31,93.1,48.31s-177.15-47.75-322.73-30.2c-91.32,11.02-106.46,35.43-235.83,57.37-28.9,4.9-69.06-24.45-102.4-42.27-38.26-20.45-100.96-36.67-136.54-45.29-85.82-20.79-122.6,13.01-211.01,21.14-12.91,1.18-87.23-16.57-99.3-21.14-43.92-16.64-58.38-1.6-111.71-3.02-36.07-.96-71.45-9.56-102.41-6.04-91.76,10.44-143.49,44.46-217.21,45.29-44.99.51-63.87-26.48-99.3-30.19-48.23-5.06-99.87,14.6-130.33,15.1-30.96.5-58.96-12.08-58.96-12.08a128.3,128.3,0,0,1-55.86-24.15c-26.34-20.29-68.38-60.26-99.3-72.47-27.12-10.71-69.53-4.51-93.09-9.05-54.2-10.46-65.17-18.12-65.17-18.12s-22.97-30.12-46.54-42.27c-18.39-9.47-33.5-1.99-62.07,0-13.58.95-32.27,7.89-46.54,9.06-64.35,5.26-136.54-3.02-136.54-3.02s-19.9,26.86,24.83,60.38c27.49,20.61,86.15,13.63,124.12,21.14,31.63,6.25,62.06,21.13,62.06,21.13s-48.72,9.72-74.47,9.06c-23.72-.6-34.23,20-52.76,21.14-35.86,2.2-33.63-18.23-77.57-12.08-91.25,12.76-170.67,21.13-170.67,21.13s-14.31,58.47,12.41,66.43c16.85,5.02,28.48,15.99,55.85,15.09,16.12-.52,50.9-7.09,65.17-6.04,28.07,2.08,76.82,10.93,71.14,23.01-5.35,11.34,36.02,10.91-61.83,19.26-24.96,2.13-53.62-8.53-74.48-9.05-21.02-.54-34.13,9.05-34.13,9.05s-20.14,17.14-21.72,36.24c-1.07,12.9,19.41,23.96,27.93,33.21,8.12,8.82,10.64,18.75,31.03,27.17,41.84,17.28,49.65,3.02,49.65,3.02s-20.55,66,43.44,72.46c27.53,2.78,46.61-7.39,80.68-12.08,19.94-2.74,38.54,9.86,65.17,12.08,19.18,1.6,45.62-7.69,65.16-6.04a912.165,912.165,0,0,1,145.85,24.16c21.98,5.48,44.6,21.21,68.27,27.17,20.83,5.25,42.17,7.25,65.16,9.06,52.49,4.13,76.83-30,130.33-39.25,21.18-3.67,36.23,8.88,58.96,15.09,13.82,3.78,34.33.98,49.65,3.02,40.75,5.43,89.65,16.67,133.43,21.14,29.2,2.98,53.79-1.16,80.68,3.02,127.25,19.75,201.25,75.01,328.94,84.54,62.32,4.65,177.12-2.84,235.83-6.04,56.83-3.1,92.57,8.55,136.54,6.04,33.43-1.92,82.9-5.57,117.92-24.16,22.26-11.82,26.65-19.35,62.06-24.15,32.29-4.38,66.42,7.21,114.81,9.06,49.12,1.87,106.3-8.97,139.64-6.04,67.31,5.92,105.04-4.46,170.68,12.07,40.01,10.09,51.1,32.76,96.19,48.31,34.98,12.07,105.41,18.23,130.33,21.14,129.96,15.15,201.15-13.19,266.85-6.04,51.1,5.56,117.9,45.29,117.9,45.29s26.7,31.23,43.5,69.44c14,31.89,16.3,74.79,37.2,126.81,17.2,42.76,64.6,70.47,68.3,129.83,4.1,66.27,29,134.95,46.5,211.34,20.2,87.69,34.5,183.63,62.1,265.7,20.6,61.31,37.4,75.37,59,138.88,6,17.73,0,19.13,0,30.2s-10.4,25.5-24.9,66.42c-12,33.99-14,96.67-21.7,129.83-11.5,49.3-25.6,95.04-27.9,135.86-1.9,32.48,7.3,61.82,6.2,87.56-1.9,43.56-41.4,66.08-49.7,105.68-11.5,54.98-22.2,118.83-34.1,178.13-19.1,95.45-36.5,162.38-46.7,198.41-5.7,20.56-9.2,31.05-9.2,31.05s-85.8,190.13-242,413.64c-14.2,20.34-30.69,93.12-40.34,117.75-29.84,76.24-37.77,118.73-65.16,199.27-33.34,98.04-98.77,217.55-114.82,347.22-6.13,49.56-13.46,112.66-12.41,153.98,0.7,27.39,4.33,32.45-9.31,63.4-11.87,26.94-38.27,50.7-58.96,72.46-30.54,32.13-49.27,60.83-80.68,96.62-75.2,85.69-132.22,196.41-201.7,283.81-38.69,48.67-69.11,70.25-108.61,114.73-51.41,57.88-97.22,130.25-142.74,196.25-30.38,44.05-63.86,81.49-86.89,123.79-16.78,30.81-22.97,67.99-34.13,99.64-22.13,62.73-54.51,120.56-71.38,181.15-18.57,66.71-25.56,134.03-55.85,196.25-40.5,83.18-67.21,195.86-80.68,295.89-6.43,47.67-8.43,104.45-15.52,141.9-28.21,149.14-64.52,191.04-114.81,277.77-13.03,22.46-26.19,31.71-52.76,51.33-9.91,7.32-18.3,20.89-34.13,30.19-10.45,6.14-23.48,15.62-37.24,15.1-15.36-.58-31.65-11.59-46.54-12.08-20.02-.65-37.35,9.49-46.55,15.1-14.14,8.62-26.31,14.95-34.13,24.15-33.23,39.09-9.31,84.54-9.31,84.54s17.71,26.93,43.44,39.25c7.1,3.41,18.45-15.99,21.72-15.09,5.44,1.49-5.34,15.88,0,27.17,5.35,11.31,25.95,21.25,31.03,24.15,6.11,3.49,9.09-31.32,15.52-27.17,10.64,6.86-9.06,20.87,0,33.21,7.93,10.8,41.31,13.89,52.75,21.14,6.04,3.82,10.95,21.63,18.62,30.19,6.69,7.46,19.24,11.78,24.82,15.1,9.15,5.43,35.25,3.7,49.65-3.02,11.28-5.27,11.1-16.16,18.62-12.08,10.53,5.7-8.06,19.6-3.1,36.23,4.19,14.04,31.81,31.07,40.34,36.23,19.19,11.61,44.38,15.62,62.06,21.14,22.07,6.88,37.16-40.82,43.45-39.25,7.76,1.93-29.74,37.62-12.42,54.34,26.61,25.68,52.76,6.04,52.76,6.04s7.28-6.08,31.03-45.29c6.96-11.5,15.61-21.88,24.82-39.25,10.43-19.67-7.23-40.32-12.41-63.4-5.58-24.88-5.18-46.52,0-78.5,7.47-46.09,83.61-115.19,86.89-169.08,4.57-75.34,12.43-180.67,46.54-262.67,31.74-76.31,92.46-131.93,142.75-205.31,20.35-29.71,41.9-58.74,55.85-96.62,11.39-30.92,13.55-62.67,40.34-81.52,28.35-19.94,37.66-40.22,55.86-60.39,43.17-47.84,86.91-100.39,121.02-160.02,44.16-77.19,75.01-194.39,111.71-292.86,18.43-49.44,42.62-87.23,62.06-126.81,37.67-76.69,43.89-129.4,89.99-187.2,19.7-24.69,58.82-48.06,86.89-66.42,39.18-25.62,36.56-31.08,58.96-48.31,20.23-15.56,47.53-53.42,65.17-72.46,24.52-26.5,44.12-77.06,65.12-105.67,33.3-45.07,59.6-58.17,93.1-93.6,40.6-42.93,76.4-92.58,99.3-138.88,53.4-107.64,65.2-217.39,65.2-217.39s-6.3,68.53,6.2,181.15c5.4,48.1,21.5,103.02,31,166.06,7.7,50.88,42.3,115.55,43.5,181.16,0.3,18.75,22.1,16.28,18.6,36.23-14.1,80.47-23.6,126.01-43.4,223.42-5.6,27.48-15.9,76.32-21.8,105.68-6.6,32.96,3.2,56.05,3.1,93.59,0,50.57-12.9,118.38-21.7,166.06-9.7,52.45-19.8,82.62-34.1,132.85-23.5,82.16-44.7,175.54-52.8,274.75-13,159.1,11.2,244.16,40.4,377.41,15.1,68.94,65.3,189.71,86.9,262.67,21.7,73.49,48.4,160.25,77.5,229.46,17.3,41.15,42.6,79.02,59,108.7,33.2,60.16,63.2,97.21,74.5,147.94,3.1,14.19,24,29.12,24.8,45.29,2,43.07-11.9,73.82-18.6,108.69-5,25.64,8.3,48.22,0,69.45-5.4,13.65-21.4,24.53-28,36.23-8.3,14.71-6.9,30.01-9.3,45.31-4.8,31.5,10,66.4,18.7,93.6,10.3,32.4,15.5,54.3,15.5,54.3s32.6,9.8,83.8,27.2c23.7,8,40.8,17.9,68.2,30.2,5.9,2.6,16.6-19.5,28-18.1,9.2,1.1,19.3,25.7,24.8,27.1,49.3,12.7,32.2-25,49.6-21.1,4.6,1,10.6,28.2,15.5,30.2,18.7,7.4,39.5,27.8,59,27.2,34.5-1.1,47.7-18.5,52.8-33.2,3.1-9.2-.2-18.9,6.2-18.2,14.3,1.8-4.1,26.2,27.9,33.3,16.4,3.6,38.8,13.3,52.7,15.1,54.8,6.8,93.1-39.3,93.1-39.3s-32.1-43.5-27.9-96.6c1.7-22.1-2.1-44.8-12.4-51.3-19.1-12.1-37.4-16.1-59-27.2-10.8-5.6-28.6-9-37.2-24.2-11.3-19.9-12.7-43.99-21.7-57.33-12.4-18.32-43.2-59.71-37.3-87.56,6.7-31.33,18.3-54.48,3.1-87.56-32.5-71.22-94.1-131.56-121-220.4-24.3-80.43-11.3-200.65-18.6-289.85-6.7-81.75-39.6-132.44-37.2-208.33,1.4-45.66,20.9-87.88,27.9-138.88,6.9-50.78,1.3-110.33,3.1-157.01,5.3-142.14-100.7-271.47-90-413.63,2.6-34.56,14.8-61.9,21.7-90.58,16.9-70.26,37.5-132.46,65.2-211.35,3.1-8.98-6.6-18.45-3.1-33.21,4-17.2,22.4-39.59,24.8-51.33,9-44.32,3.5-52.8,9.3-75.48,3.4-13.35,23.9-25.15,27.9-36.23,15.4-42.07-4.4-49.64,6.3-90.58,8.7-33.56,31.2-86.49,37.2-114.73,28.8-135.82-21.4-262.38-9.3-365.33,26.1-222.25,86.9-329.09,86.9-329.09s-10.1,83.11,0,205.3c6.8,83.1,33.9,179.4,37.2,298.91,1.3,48.24-.5,108.78-9.3,160.02-5,29.17-14.2,47.4-12.4,78.5,6.3,112.97,13.2,207.81-3.1,338.15-9.3,74-33.6,160.53-49.7,241.55-8.8,44.67-11,88.54-18.6,132.84-19.1,110.73-46.9,199.03-43.4,323.06,2.1,75.94,28.2,169.3,65.1,250.6,16.8,36.93,44.7,67.47,55.9,99.63,16.3,46.91,4.7,163.81,9.3,265.7,2.3,51.89,17.8,98.34,24.8,132.85,29.4,144.73,114.9,270.8,121,401.56,3.1,63.77-43,150.29-40.3,181.19,10.5,117.8,31,157,31,157s75.6,12.4,173.8-3.1c66.1-10.4,139.8-34.6,226.5-39.2a45.217,45.217,0,0,1,5.1-.2c110.4,6.6,109.3,39.7,187.3,42.5,45.5,1.5,153.8,10.7,198.6,0,13.8-3.3,12.5-32.9,24.9-33.3,9.9-.2,3,28.2,12.4,27.2,16.1-1.7,47.7,6.8,62-3,9.9-6.8,5.8-20.9,15.5-21.1,9.5-.2,4.9,8.9,9.4,15.1,6.5,9.1,25.1,10.4,46.5,9,70.5-4.5,121-6,121-6s21.9-21.1,18.6-54.4c-2.6-26.9,11.6-61.9-21.7-78.5-10.5-5.2-45.9,3.3-65.1,3.1-16.5-.3-19.3-9.4-37.3-12.1-18-2.8-32.9-16-49.6-21.2-17.8-5.5-34.1-3-49.7-3-43.1,0-43.6,14.7-86.9,6.1-34.4-6.9-77.3-15.8-108.6-30.2-22.3-10.3-36.3-28.8-52.7-42.3-22.3-18.31-52.2-24.9-71.4-39.25-121.1-90.42-164.6-63.58-195.5-178.13-15.3-56.72-63.9-149.57-74.5-241.54-18.1-157.97,9.8-348.38,18.6-528.37,7.8-158.37-21.7-327.15-34.1-492.14-3.7-49.45,1.2-103.96,0-150.96-1.5-56.6,36.1-119.84,43.5-157,4.8-24.72,4-58.46,15.5-90.58,16.8-47.32,50.7-93.93,55.8-129.83,5.6-39.23-3.4-80.93-6.2-120.77-3.5-51.36-1.3-100.38,6.2-144.92,15.6-91.75,55.4-154.31,74.5-223.43,41.6-150.35,68.3-238.52,68.3-238.52s39.6,56.87,93.1,172.1c20.4,44.02,37,113.24,62,172.1,33.3,78.04,77.2,150.15,124.2,241.54,16.9,33.05,26.4,84.87,40.3,123.79,28.5,80.14,56.9,154.97,77.6,244.56,13.2,57.3,15.3,108.5,31,163.03,14.4,50.02,44.7,100.75,71.4,144.93,34.1,56.51,74.2,123.3,117.9,153.98,19.5,13.7,43.3,12.98,58.9,30.19,3,3.23,14.4,6.95,15.6,12.08,0.3,1.67,1.1-7.07,1.1,5.01,0,6.27,16.8,80.42,45.4,151.99,26.4,66.19,63.3,128.52,96.2,172.1,10.5,13.97,29.1,14.44,46.6,33.21,22.5,24.34,48.6,61.73,74.4,84.54,16.7,14.7,45.1,26.91,55.9,42.27,47.9,68.24,94.8,129.38,127.2,190.21,38.1,71.34,57.8,141.5,59.8,210.85,1.3,45.38,19,81.18,36.4,109.19,9,14.58,27.9,25.66,37.2,36.23,29.1,32.68,43.5,45.29,43.5,45.29s80.5-20.85,189.3-87.56c22.1-13.54,45.4-56.64,71.4-69.44,20.5-10.17,28.6,2.27,55.8-3.02,59.9-11.64,127-54.26,170.7-78.5q17.25-9.585,33.9-19.4c29.2-17.13,62.8-34.91,84-56.08,6-6.01,17.9-12.92,21.7-21.13,6-12.68,3.4-26.86,12.4-33.22,8.2-5.7,14.2,6.43,21.8,9.06,9.2,3.19,19.8-2.53,27.9-6.04,25.4-11.04,43.4-36.23,43.4-36.23s5.8-45.74-46.5-96.61c-25.8-25.1-95.2-34.52-142.8-21.14-48.2,13.59-84.3,46.65-130.3,57.37-28.3,6.58-40.1-7.83-90-15.1-25.2-3.68-108.8,30.79-127.2,6.04-14.7-19.79-38.4-57.05-62.1-87.56-54.8-70.67-118.3-147.84-133.4-193.23-19.2-57.54-34.7-124.21-59-205.31-18.5-62.04-45-135.43-65.1-202.29-19.9-65.82-27.8-126.92-55.9-193.23-34.7-81.77-69.1-134.64-93.1-184.18-101.3-209.55-115-185.72-173.8-286.83-8.7-15.05-42.4-41.57-52.7-63.4-29.4-62.35-63.8-138.45-83.8-214.37-18.6-70.62-22.9-141-43.4-202.29-16.8-49.84-35.7-43.68-55.9-84.53-26.2-52.98-69-148.48-71.4-217.39-1.5-45.26,24.7-108.95,15.5-178.14-12.7-96.53-59.7-190.03-93-289.84-19.2-57.5-57.9-244.5-74.5-292.87-25.5-74.08-72.7-123.97-105.5-172.1-6.3-9.25-22-17.64-28-27.17-32.4-51.77-50.3-107.87-71.3-157-23.9-55.67-48-63.38-62.1-114.73-8.9-32.45,1.8-62.63,0-93.6-3.9-67.8-12.2-133.12-24.8-190.21-18.5-83.57-52.8-143.9-71.4-199.27-28-83.5-46.5-144.93-46.5-144.93s56.3-48.37,46.5-178.13c-2.3-30.98-25.8-52.7-34.1-99.64-6-33.96,4.2-77.08-3.1-108.69-6.8-29.6-25.7-64.33-18.6-90.58,11.1-41.57,36.8-63.08,52.7-114.73,20.1-65.11,19.1-163.39,37.3-226.45,18.7-64.8,51.8-127.11,68.2-184.17,11.3-39.43,24.7-76.77,27.9-108.69,2.8-27.47-4.3-50.48,0-72.46,9.8-49.31,40.4-81.52,40.4-81.52s15.7-70.97,74.5-132.85c19.8-20.9,45.1-47.1,77.5-60.38,22.3-9.11,49.3-6.18,74.5-15.1,44.4-15.72,88.4,7.93,161.4,18.11,31.9,4.46,64.3-3.45,90-6.03,61-6.14,105.1-26.86,170.6-36.23,45.3-6.48,116.3,1.88,164.5-3.02,42-4.28,82.6,16.37,127.2,15.09,47-1.34,98.6-25.02,149-21.13,59.5,4.59,80.9,39.47,145.8,54.34,49,11.23,67.8,1.54,124.2,6.04,37.4,2.99,82.4,16.72,127.2,21.14,48.6,4.79,96.6.07,128.8-2.65,11.9-1.01,5.2.88,17-.37,143.9-15.2,221.6-59.37,335.2-84.54,49.1-10.9,129.1-3.26,186.1-9.06,65.6-6.65,141.4-20.06,226.6-15.1,43.5,2.54,104.6,21.36,133.4,18.12,56.1-6.29,77.1-23.48,124.1-33.21,29.7-6.14,87.7-5.69,114.8-9.06,40-4.96,73.4,5.93,105.6,3.02,29-2.63,57.6-19.22,79.2-20.59,52.6-3.33,82.1-3.56,82.1-3.56s39.2-46.13-18.6-66.43c-26.9-9.45-83.5-2.36-130.3-3.02-20.8-.29-47.6,14.01-62.1,12.08-18.2-2.42-21.7-21.13-21.7-21.13s3.9-11.25,21.7-15.1c30.6-6.62,83.7-5.34,133.4-9.06,29.7-2.22,57-9.72,80.7-12.08,35.7-3.53,55.9-12.07,55.9-12.07a86.119,86.119,0,0,0,18.6-33.21c2.8-9.84-7.4-26.39,0-33.22,8.8-8.21,21.4-4.89,34.1-6.03a186.885,186.885,0,0,0,31.7-6.04s1.3-10.63,2.6-25.39c0.3-3.75,3.7-1.58,1-11.93-3.6-13.58,2.5-37.9,2-53.26-0.5-13.34-9.3-24.16-9.3-24.16s-41.4,4.8-65.2,0c-21-4.23-43.5-30.19-43.5-30.19s-40.3-14.71-96.2-27.17c-30.7-6.87-50.3-35.9-83.7-42.27-32.7-6.23-69.9,25.54-102.4,27.17-57.9,2.91-104.8-15.75-161.4-12.07-66.6,4.32-122.5,53.45-170.7,84.53-49.1,31.69-90,45.29-90,45.29s-75,1.84-136.5,9.06c-45.8,5.39-69.5,17.2-127.2,15.1-45-1.64-90.8,14.8-149-6.04-31-11.12-36-11.89-37.2-12.08-83.7-12.67-104.3-25.79-214.1-27.17-58-.73-135.3,11.83-201.7,12.08-61.9.23-112.8-12.24-167.6-3.02-65.5,11.01-103.8,54.27-164.5,54.34-84.5.1-139.5-50.09-207.9-54.34-154.9-9.65-279.2,3.02-279.2,3.02s89.1-45.29,229.6-114.74c71.1-35.13,140.4-79.87,242-111.71,44.2-13.84,103.4,3.82,167.6-6.04,47.5-7.29,99.7-42.95,152-66.42,47.1-21.12,92-35.67,133.5-48.31,163.8-49.96,267.6-159.68,403.4-238.52,108.6-63.05,232.4-110.5,328.9-169.08,10.6-6.44,26.2,1.71,46.6,0,34.8-2.91,79.8-13.72,108.6-24.15,52.4-19,59.4-63.58,90-78.5,18.1-8.87,34.5-29.43,52.7-36.23,100.3-37.45,178.2-98.38,220.3-138.89,9.7-9.25,19.6-25.45,15.5-39.25-6.1-21.1-31-39.25-31-39.25a195.112,195.112,0,0,0-31,24.16c-9.1,8.61-15.7,23.73-27.9,30.19-8.1,4.24-38.1,6-46.6,9.06-35.1,12.68-47.3,37.7-71.4,42.27-17.9,3.41-15.5-27.18-15.5-27.18s20.4-15.23,55.9-33.21c19-9.64,46.8-16.7,68.2-30.19,18.1-11.34,24.4-34.4,43.5-45.29,19.9-11.34,41.9-4.96,62.1-12.08,16.7-5.9,32.2-25.34,43.4-33.21,28.7-20.14,0-60.38,0-60.38s-26.4-6.58-52.8-3.02c-31.9,4.32-111.6,32.89-142.7,57.36-25.7,20.21-9.3-24.15-9.3-24.15s95.9-49.26,158.3-90.58c45.8-30.37,27.9-78.5,27.9-78.5s-27.3-1.79-43.5,3.02c-17.2,5.13-39.3,28.9-58.9,27.17-36.5-3.21-46.6-18.11-46.6-18.11s-30.9,6.02-86.9,24.15c-28.1,9.12-70.2-1.94-102.4,12.08-25.6,11.16-26,28.82-55.8,42.27-23.4,10.52-34.4,24.9-59,39.25-31.6,18.44-86.6,26.06-121,48.31-29.9,19.32-70.2,68.91-93.1,108.69-12,20.85-10.8,35.7-34.1,45.29-55.7,22.84-137.4,52.26-223.4,99.63-54.8,30.17-113.6,56.66-176.9,72.47-99.3,24.77-199.9,22.49-294.8,45.29-44,10.56-85.6,33.06-127.2,54.34-91.2,46.61-170,75.92-239,120.77-32.3,20.99-64.2,61.58-93.1,87.56-20.7,18.63-38.9,22.72-58.9,39.25-22,18.1-63.1,12.52-93.1,18.12-69.1,12.86-135.9,20.14-186.2,39.25-194.3,73.75-270,135.86-270,135.86s-153.2-73.22-310.3-42.27c-49.7,9.79-115.1,12.86-161.4,36.23-28.1,14.19-38,48.06-65.1,60.39-31.2,14.17-91.1,15.36-117.9,27.17-74.3,32.68-96.2,72.46-96.2,72.46s-26.8-13.06-43.5-27.17c-18.9-15.97-27.9-42.27-27.9-42.27s80.7-50.59,159.1-147.32c11.9-14.8-6.1-20.35-.9-39.87,2.9-10.55,21.2-12.79,28-30.2,7.3-18.82,3.2-52.82,9.3-63.4,17.3-30.11,60.8-42.19,74.5-75.48,3.4-8.52-7.3-12.22-12.5-24.16-5.7-13.18-6.1-34.69-6.2-45.28,0-3.59-20-4.7-31-12.08-12.6-8.46-16.2-23.26-15.5-27.17,0.5-2.88-1.1-29.63,6.2-45.29,5.1-10.94,17.6-13.16,24.8-12.08,5.8,0.86,22.4-1.53,27.9,15.1,4.8,14.18-10.7,47.09-6.2,54.34,5.5,8.71,21.8-12.08,24.9-15.09,24.4-24.33,25-79.01,21.7-93.6-3.2-14.01-9.2-28.58-31-30.19-26.9-1.98-70.7,9.91-77.6-3.02-5.9-10.93,11.4-30.26,21.7-51.33,13.7-27.97,22.1-59.08,15.5-78.5-2.4-7.05-9.3-22.95-18.6-27.17-15.4-6.96-35.4-1.85-37.2-18.12-1.7-14.49,18.4-29.66,24.8-48.31,8.5-24.95,3.2-52.95-6.2-63.4-37.3-41.14-93.6,22.69-117.9-3.02-7.8-8.21-23.5-21.7-24.9-36.23-1.7-19.4,12.3-41.5,9.3-63.4-4.2-32.05-16.7-51.91-31-63.41-11.9-9.62-46.4-18.24-65.1-24.15-14.5-4.56-17.8-15.35-28-24.16-53.2-45.85-99.3-75.48-99.3-75.48s-79.5-14.42-167.5-9.06c-14.8.9-47.6,1.01-59,6.04-5.4,2.41-23,3.14-31,9.06-8.8,6.46-8.5,18.05-21.8,18.12-10.7.05-16.8-22.33-27.9-24.16-33.3-5.52-69.2-10.84-99.3-12.07-104.4-4.31-189.3,15.09-189.3,15.09s6.2,27.94-40.3,72.46c-17.7,16.95-92.9,29.3-96.3,42.24-9.2,35.97-32.8,81.31-43.4,129.86-7.5,34.56-48.9-25.66-93,0-20.6,11.92-10,50.11-24.9,63.41-24.3,21.79-41.4,49.12-53,80.99-7.2,19.89-49,4.51-52.5,27.7-1,7.2-1.2,25.3-1.3,45.3-0.2,20.28-.5,42.52-1.8,57.35-1.5,17.22,40.5-6.99,40.4,3.02-0.4,19.52,16.2,54.57,15.5,81.52-0.6,20.72-41.5,32.38-37.3,48.31,2.7,10.2,51.4-1.15,52.8,9.06,1.5,10.76,28.8,46.92,24.8,57.36-3.5,9.24-38.4-7.25-36.6,2.37,5.6,30.16-27.9-30.62-68.9,27.82-12.9,18.39-8,49.9,21.7,93.6,11.1,16.25,41.1-4.8,62.1,9.06,9.3,6.12-42.8,89.06-37.2,102.65,2.8,7.06,28.4,63.68,43.4,54.35,8.8-5.47,1.8-43.5,6.2-63.4,4.9-22.13,20.8-25.98,21.1-24.86,31.7,107.84,78.8,199.83,96.8,245.26C10549.5,3237.42,10541.7,3247.92,10541.7,3247.92Z" transform="translate(-693.875 -344.281)"/>
    <path id="Quadrat_Kopie" data-name="Quadrat Kopie" class="cls-13" d="M7127.68,2028.85V10290.4H15066.7V2028.85H7127.68Z" transform="translate(-693.875 -344.281)"/>
    <path id="Kreis" class="cls-14" d="M11092.5,376.618c2708.6,0,4904.4,2202.7,4904.4,4919.862s-2195.8,4919.82-4904.4,4919.82c-2708.65,0-4904.44-2202.65-4904.44-4919.82S8383.85,376.618,11092.5,376.618Z" transform="translate(-693.875 -344.281)"/>
  </g>
  <path id="Hand_Adam_1" data-name="Hand Adam 1" class="cls-9" d="M693.884,9123.91V7543.21C954.091,7389.36,1789.37,7189.24,1972.47,5822.15c30.42-64.34,118.21-127.35,174.96-167.83,220.89-157.57,492.6-262.22,868.67-262.44,505.06-.29,736.55,141.95,897.15,458.75,42.16,109.62,107.71,364.46,122.06,456.71v3.06c45.13,70.56,154.93,263.13,501.47,514.69,143.81,104.39,372.2,112.8,577.75,148.5,349.7,60.74,727.74,59.69,977.51,213.61q49.83-239.01,99.68-478.07c-169.85-109.91-322.4-381.71-441.45-551.31-276.08,25.17-490.56-17.81-689.65-102.74q-11.7-6.6-23.39-13.22-13.23-7.125-26.45-14.24-16.275-9.66-32.55-19.33c-1.69-1.01-3.39-2.03-5.08-3.05-151.99-101.89-193.12-291.46-333.64-401.78-186.27-146.26-396.04-278.59-614.37-390.6-119.37-61.23-323.93-107.8-401.79-211.57q-7.11-10.68-14.24-21.36-5.595-8.145-11.19-16.28c-91.6-154.65,34.97-342.19,89.51-454.67-158.09-41.37-317.31,28.81-417.04,71.2-183.73,78.1-365.99,137.35-520.79,242.09-201.18,136.12-366.18,310.99-593.02,422.12-308.34,151.06-673.21,222.72-967.33,380.43-76.41,40.97-481.993,353.19-495.366,353.98V5874.03q89.5-72.72,179.023-145.46c181.313-126.65,363.563-233.14,584.873-325.5,237.88-99.27,502.1-137.81,709.99-263.44,203.69-123.09,364.92-283.75,562.5-408.91,221.33-140.2,488.51-236.12,767.97-310.24l421.11,10.17q211.05,15.255,422.13,30.52c304.02,59.59,590.03,73.85,866.63,143.42,189,47.54,409.25,113,654.05,84.43,239.23-27.93,553.99-52.21,775.09,1.01,216.77,52.18,415.37,167.77,545.2,310.24q61.035,75.27,122.06,150.54l293.97,84.43c206.74,62.67,408.45,149.62,587.93,244.12,637.5,335.68,919.49,741.65,1263.33,1366.07,53.43,97.04,176.18,222.87,95.61,320.41-44.45,53.82-111.14,76.14-193.26,93.58-327.12,69.46-424.44-258.01-548.26-425.18l-158.68-148.51q-53.9-40.17-107.82-80.35c19,223.58,153.4,415.68,204.45,584.87,83.5,276.69,22.76,559.3,188.18,746.61v-12.21l12.21,43.74q-65.61,64.08-131.22,128.17c-168.64,138.31-263.53-85.19-344.82-182.08q-0.51,35.1-1.02,70.19c-9.49,76.55-18.94,134.13-61.03,180.04-29.7,32.4-98.46,63.43-156.64,46.79-218.42-62.47-226.51-239.34-285.83-455.7q-20.85-63.06-41.7-126.13c-50.71-100.45-156.01-139.32-202.42-237q-50.865-177.99-101.72-356.01c-34.27-55.89-155.5-38.94-205.47-79.34-82.06-66.35-125.55-168.11-194.28-248.19q16.275,82.89,32.55,165.8c33.01,125.63,67.29,213.9,93.58,329.56q49.32,59.505,98.67,119.01c98.35,150.39,215.55,426.01,85.44,634.72-112.56,180.56-320.38,99.65-489.26,49.84-107.35,160.03-352.45,406.26-471.97,83.41-51.97-140.38,2.48-284.3-12.21-410.94-249.69-188.57-442.03-418.93-783.23-519.78-417.99-123.54-977.87-53-1310.12-265.48-193.95-124.03-341.18-283.93-469.93-472.99q-25.44-35.085-50.86-70.18c-420.37,141.37-724.99,500.19-944.96,720.16-158.91,212.6-279.89,466.54-456.71,662.18-337.34,373.25-799.35,618.98-1225.7,903.25C1154.1,8742.52,884.707,9124.78,693.884,9123.91ZM5127.76,4697.15c-331.78,482.53,4.59,736.05,360.08,955.13,23.01,14.18,177.4,73.92,186.14,85.44q14.235,57.975,28.48,115.96c18.5,56.18,57.69,104.96,80.36,136.3q26.445,67.14,52.89,134.27c301.74,451.26,634.2,766.52,1154.5,1005.99,51.47,23.69,205.55,108.81,252.26,113.92h1.01c-2.87-35.92-36.86-43.66-61.03-57.98-302.99-179.51-1093.69-572.98-1089.39-954.11-29.79,1.74-67.02-25.97-50.86-66.11l10.17-12.21c42.12-42.53,221.63-116.05,283.79-158.68,123.92-84.98,192.13-208.18,298.03-297.01q2.04-1.02,4.07-2.04c62.99-16.57,90.28,53.94,77.31,113.92-32.22,3.31-111.66,71.6-128.17,101.72,0.68,2.71,1.36,5.43,2.04,8.14q10.68,1.02,21.36,2.03c114.96,40.09,240.97,169.44,404.83,143.43,137.49-21.83,237.41-102.44,386.53-107.83q53.91,12.21,107.82,24.42c-1.69,1.01-3.39,2.03-5.08,3.05,92.32,49.17,141.95,89.51,293.96,89.51q92.55-3.555,185.13-7.12,68.145,21.36,136.3,42.72c0.68-.34,1.36-0.68,2.03-1.02-12.54-102.11,168.28-147.36,232.94-207.5-280.33-203.8-685.57-357.8-1121.95-386.53q-22.38-6.6-44.75-13.22c-25.45-29.23,55.05-236.05,62.04-280.74-67.96-49.4-127.52-164.4-200.38-224.8-212.75-176.35-535.1-300.01-948.01-230.9l-266.5,12.21v1.02q236.985,55.425,474,110.87c288.2,84.34,563.75,153.13,811.71,274.64,25.42,12.45,57.42,39.16,42.72,72.22-26.8,60.27-160.17-30.79-197.33-46.79-393.74-169.54-885.21-250.91-1318.26-369.24Q5388.18,4758.7,5127.76,4697.15Zm5.08,148.51q6.1,1.53,12.21,3.05v1.02c-2.04,1.02-4.07,2.03-6.11,3.05q-4.575-1.02-9.15-2.03C5130.81,4849.05,5131.82,4847.36,5132.84,4845.66Zm-75.27,148.51h0Zm-5.09,13.22q-1.515,5.595-3.05,11.19Q5050.96,5012.985,5052.48,5007.39Zm-4.06,11.19h0Zm-2.04,7.12h0Zm-1.02,4.07v7.12c-0.67-.68-1.35-1.36-2.03-2.03C5044.01,5033.16,5044.69,5031.47,5045.36,5029.77Zm-3.05,9.15c-0.34,3.06-.67,6.11-1.01,9.16C5041.64,5045.03,5041.97,5041.98,5042.31,5038.92Zm-3.05,11.19q-1.02,12.72-2.03,25.43c-0.34-1.01-.68-2.03-1.02-3.05Q5037.74,5061.3,5039.26,5050.11Zm-4.07,25.43q-1.515,35.1-3.05,70.19Q5033.67,5110.645,5035.19,5075.54Zm-2.03,73.24v0Zm2.03,23.39h0ZM6379.9,5693.99c31.59,8.5,51.92,27.6,59,56.96l-1.02,1.02c-1.36-1.7-2.71-3.4-4.07-5.09-16.45,111.06-409.96,447.4-496.38,339.74-17.44-21.72-22.47-54.96,2.03-75.27q47.8-14.25,95.62-28.49c95.81-28.82,195.01-76.72,240.05-158.68-94.29-24.17-502.1,100.38-487.23-31.53C5798.23,5701.06,6318.62,5759.8,6379.9,5693.99Zm346.86,62.04h0Zm2.03,6.11q1.02,16.77,2.04,33.56Q6729.81,5778.93,6728.79,5762.14Zm0,67.13h0Zm1685.46,113.92c-11.74,74.74-215.19,146.62-216.66,197.34,33.57,19.17,115.55,40.53,134.27,81.37,22.96,50.1,60.18,128.76,105.79,169.87,63.05,56.84,131.34,72.95,193.26,123.08l63.07,80.35s282.4-88.38,304.13-94.59c-22.64-64.61-335.78-381.74-400.77-420.1-8.59,61.79,8.93,338.59-96.63,306.17-81.6-25.06-2.71-318.18,73.24-326.51ZM6527.39,5955.4q-82.38,71.19-164.78,142.41-110.355,59.49-220.73,119.01c-0.34,1.69-.68,3.39-1.02,5.08,104.37,0.06,617.38-170.48,648.96-44.76l148.51,14.25q27.975-11.19,55.94-22.38,3.57,5.085,7.12,10.17c35.53,24.08,290.93,276.33,224.8,320.41q3.555,6.615,7.12,13.22c16.65-7.31,32.85,32.06,41.71,46.79l207.5,313.29c36.85,37.84,149.24-10.7,196.31,64.09q20.85,28.47,41.71,56.96,12.21,27.465,24.41,54.93,0.51,3.555,1.02,7.12,2.025,5.085,4.07,10.17,11.685,33.045,23.39,66.11c36.64,62.14,26.64,149.93,61.03,212.59,46.34,84.45,147.8,117.23,191.23,213.61,54.51,120.98,124.69,655.51,303.12,552.33-323.57-739.28-697.55-1408.61-1199.25-1972.31-171.91,109.85-543.86-64.29-595.05-183.09h-7.12Zm1173.82,222.76c-11.39,25.73,51.8,118.29,70.19,133.25q60.51,246.645,121.04,493.33,73.74,104.25,147.49,208.52c20.53,24.46,28.87,112.97,50.86,147.49,51.65,81.11,135.03,122.4,181.06,213.61,18.67,37.01,28.27,113.58,56.96,157.66q60.015,62.055,120.03,124.1,118.995,194.775,238.02,389.58l49.84-2.04q-124.08-280.71-248.19-561.48c-36.22,17.25-103.53,69.82-133.25,14.24-32.28-60.35,48.21-90.46,89.51-105.78v-1.02q-64.59-132.225-129.18-264.47c-68.85,1.25-188.97,66.38-214.63-12.2-22.18-67.93,117.15-82.15,163.77-82.39C8208.69,6911.73,7781.17,6177.52,7701.21,6178.16ZM4601.88,6404.99c117.95,65.83,266.08,239.74,352.96,349.91q62.04,60.015,124.09,120.03c6.62,16.34,4.01,41.69-9.15,51.87h-2.04q-18.81,4.59-37.63,9.16c-24.69-6.03-499.44-451.43-501.47-463.83C4519.14,6414.11,4574.93,6420.49,4601.88,6404.99Zm1693.59,55.95c47.2,114.44,219.3,213.86,316.35,283.79q24.915,15.765,49.84,31.53,9.66-48.81,19.32-97.65C6717.89,6498.75,6462.94,6459.65,6295.47,6460.94Zm-1223.66,26.44q25.935,14.76,51.88,29.5c-16.45,57.47,17.28,100.16,26.44,146.48q6.1,7.62,12.21,15.25c60.51,109.68,146.6,166.17,276.67,205.47,52.49,15.86,90.23,10.76,120.03,34.59q4.065,20.85,8.14,41.7c-27.51,3.97-43.1,47.49-86.46,39.67-223.99-40.39-396.57-167.34-458.75-384.49-6.52-22.78-26.73-68.42-6.1-96.63Q5043.83,6503.155,5071.81,6487.38Zm-353.98,18.31h0Zm17.3,16.28h0Zm389.57,0h0Zm3.06,29.5h0Zm3912.06,1.01c-25.62,75.69-201.79,69.77-260.4,121.05q57.465,37.125,114.94,74.25,67.635,108.315,135.28,216.66l94.6,114.94c-1.35,1.36-2.71,2.71-4.07,4.07,81.46,62.98,226.76,119.31,336.69,46.79C9435.02,7068.86,9078.44,6570.2,9039.82,6552.48ZM4338.43,6662.34h0Zm1192.13,231.91h0Zm21.36,17.3h0Zm3231.57,560.46h0Zm-1747.51,55.95c-171.52,80.02,94.71,282.22,167.83,346.85,89.36-33.89,117.12-103.98,115.96-227.85C7236.13,7597.38,7164.01,7527.31,7035.98,7527.96Zm9.15,145.45h0Zm-526.89,26.45c1.01,0.34,2.03.68,3.05,1.02-2.71.33-5.43,0.67-8.14,1.01C6514.85,7701.21,6516.54,7700.54,6518.24,7699.86Zm613.35,26.44q10.68,7.635,21.36,15.26c-0.67.68-1.35,1.36-2.03,2.04-1.02.34-2.03,0.67-3.05,1.01Q7139.725,7735.46,7131.59,7726.3Zm-500.45,15.26c-24.45,78.12,10.94,176.69,30.52,246.16q1.515-6.615,3.05-13.22c33.73,56.04,14.5,130.38,55.94,181.05,44.45,54.35,222.65-169.15,242.09-189.19v-4.07Q6796.96,7851.935,6631.14,7741.56Zm956.15,13.23h0Zm-924.62,206.48,3.06,10.17-2.04,1.02c-0.68-.34-1.35-0.68-2.03-1.02Q6662.17,7966.355,6662.67,7961.27Zm2277.46,10.17h0Z" transform="translate(-693.875 -344.281)"/>
  <path id="Hand_1" data-name="Hand 1" class="cls-9" d="M15154.1,4514.05c-50.3,8.28-105.1,3.12-160.5,9.73-176.8,21.11-298.3,1.62-298.3,1.62s-38.5,21.51-27.5,59.98c17.6,61.79,74.3,180.18,141,256.12,81.1,92.34,192.9,141.03,192.9,141.03s49.5-.52,61.6-51.87c11-46.74,72.1-124.98,139.4-212.36,33.5-43.53,82.7-95.64,113.5-124.82s95.6-77.8,95.6-77.8,11.5-75.62-53.5-48.63C15379,4458.48,15282.8,4492.87,15154.1,4514.05Zm-3271.2,346.9c86.9,415.29,1004.4,111.22,1311.4,69.71,239.9-32.45,450.7,38.54,651.6,63.22l218.9,4.86c22.8,9.84,213.6,165.9,244.7,194.52v11.35c-65.3,53.99-62.3,108.66-108.6,184.79-2.1,1.62-4.3,3.24-6.4,4.87q-59.25,32.415-118.4,64.84-38.85,50.235-77.8,100.5c-320.1,160.61-410.9,192.1-398.8,367.97,15.4,221.08,262,292.52,293.4,312.86-7.7,40.93,1.6,159.43-12.9,251.25-16.7,105.3-56.9,183.56-55.1,205.87q62.4,200.985,124.8,402.01,14.55,126.435,29.2,252.88c23.4,58.71,106.3,127.28,170.2,145.89,116.9,34.07,189.7-47.11,269.1-69.7,74.4-21.17,174.9,53.78,272.3,16.21,156.1-60.21,148-218.14,170.2-390.67,4.4-34.54-8.7-75.79,1.6-110.22q55.05-103.74,110.2-207.49,34.05-131.3,68.1-262.61c36.5-67.75,108.2-88.16,162.1-137.78,20.8-19.11,44.6-87.36,79.5-77.81,0.5,0.54,1,1.08,1.6,1.62q-59.25,162.885-118.4,325.82c-37.4,103.65,38,195.54,35.7,236.67-15.3,269.09,123.6,473.56,238.3,492.79,306.9,51.43,321-237.33,346.9-479.82q-2.4-111.03-4.9-222.08,57.6-94.005,115.1-188.04,19.5-54.3,38.9-108.61c142.7-14.04,298.3-28.1,440.9-42.14,197.7-184.52,540.4-242.18,585.2-286.92,424-422.98,810.3-722.17,1011.5-742.43,274.8-27.65,550.8,186.44,1728,228.57,567.3,20.29,1041.3-126.65,1194.7-94.02-1.6-436.01,6.5-969.38,8.1-1304.92-118.4-84.27-585.4,308.4-1415.1,212.35-410.4-47.5-481-338.49-783-481.44-608.1-287.94-948.1,104.88-1418.4,265.85-590.6,202.18-480.3-155.71-554.3,353.38-47.7,253.74-110.2,551.09-275.6,690.55-272.5,229.72-559.9-281.64-656.5-256.12q-547.95,386.58-1095.8,773.22l-8.1-6.48c-17.6-91.8-183.8-289.25-183.2-295.02,83-56.61,421.8-165.76,406.9-286.92-4.4-8.11-8.7-16.21-13-24.32q-83.55-36.465-167-72.94c-116.5-65.53-206.5-165.94-273.9-280.44-11.2-18.92-21.8-55.96-55.1-51.87-40.5,4.96-75.1,143.25-95.7,175.07-17.1,26.51-105.5,131.9-160.5,106.98q-72.9-174.24-145.8-348.51-446.55-89.16-893.2-178.32c-6-2.16-11.9-4.32-17.9-6.48-2.1-1.08-4.3-2.16-6.4-3.24,1-6.49,2.1-12.97,3.2-19.45,9.7-2.16,19.5-4.33,29.2-6.49q207.45-26.745,415-53.49c132.4,15.85,288.1,48.51,442.5,29.18,154.5-19.35,279.3-63.87,405.3-95.64l137.7,11.34q124.05-25.11,248.1-50.25,379.95-174.24,760.2-348.52,221.25-54.285,442.5-108.6,164.55-64.035,329.1-128.06c122.2-26.55,218,34.2,424.7-3.25,131.5-23.81,245.9-59.95,346.9-110.22,66-32.83,120.7-80.85,189.7-103.75q390.6-56.73,781.3-113.47c207.9-49.74,364.6-163.31,635.4-222.08,312.7-67.86,589-21.95,932.1-72.95,280.9-41.74,1128.4-526.07,1280.6-461.98,0-27.56,3.3-81.06,3.3-108.61-551.2,137.36-731.5,299.07-1193.1,476.58q-529.95,47.8-1060.1,95.64c-316.7,50.94-367.7,161.38-578.7,209.11q-417.45,63.21-834.9,126.44c-143.6,63.56-270.8,164.98-447.4,196.14-309.2,54.58-371.1-3.61-489.5,12.97q-215.55,81.855-431.2,163.72-178.35,39.705-356.6,79.43-401.25,181.53-802.4,363.11c-171.8,53.43-216.5-2.39-319.4,16.21q-115.05,36.465-230.2,72.94c-485.6,72.67-438.9-23.94-632.1-4.86q-268.35,36.465-536.6,72.94c-119.2,54.85-269.7,186.77-630.6,212.36-72.4,44.38-217.8,166.05-436,181.55C11888.2,4691.59,11871.8,4808.18,11882.9,4860.95ZM13807,5857.88c67.4-53.39,207.9-131.82,314.5-132.93q48.6,43.77,97.3,87.54c0.5,4.86,1,9.72,1.6,14.59-26.9,38.49-81.9,34.79-121.5,80.91-31,36.15-46.3,122.91-73,150.89C13948.2,6057.53,13801,5932.74,13807,5857.88Zm-118.3-48.63q8.1-.81,16.2-1.63,23.55,64.845,47,129.69c74,113.79,161.1,129.98,267.5,210.73q-1.65,7.29-3.3,14.59C13912.6,6235.57,13584,5977.42,13688.7,5809.25Zm476.6,1599.94c-36.1,5.58-100.3-57.47-110.3-84.3q-16.95-128.85-34-257.74-56.7-180.72-113.5-361.48,35.7-224.49,71.4-449.02,89.1-16.215,178.3-32.42c3.8,3.24,7.5,6.48,11.3,9.72-2.2,122.1-32,223.6-68.3,306.2-23.2,53.02-54.8,90.62-64.6,146.06q60.75,98.07,121.6,196.15C14220.6,6994.77,14250,7285.19,14165.3,7409.19Zm1403.8-1201.18c-36.4,300.8-258.2,228.32-283.7,385.81-29.7,182.95,277,356.47,283.7,615.98-0.6,4.86-1.1,9.73-1.6,14.59-154.6,81.68-268.5-126.16-287-244.77q4.05-84.285,8.1-168.59c-7.1-62.82-59.4-109.58-45.4-210.73q61.65-158.025,123.2-316.1,12.3-72.12,24.4-144.27,43.65-4.05,87.5-8.1c31.3,5.4,62.7,10.8,94,16.21C15571.2,6168.03,15570.2,6188.02,15569.1,6208.01Zm291.8-508.99c11.8-1.62,23.7-3.25,35.6-4.87,190,55.84,465.7,242.75,483.1,444.16q-4.05,4.05-8.1,8.11C16256.5,6141,15834.6,5797.33,15860.9,5699.02Zm-714.9,14.59c101.9-69.43,305.4-151.5,450.6-157.24,160.7,116.47,228.7,308.52,376.1,434.43q135.3,95.625,270.7,191.28c1.6,5.4,3.3,10.81,4.9,16.21l-3.3,3.24c-250,119.86-415.2-73.17-590-123.2l-262.6-29.17c-24.5-48.45-8.1-106.77-43.8-152.38q-102.15-86.715-204.2-173.45C15144.9,5720.09,15145.4,5716.85,15146,5713.61Zm-111.9,48.63,11.4,9.72c-6.3,232.65-199.6,398.2-314.5,534.94-32.2-2.51-101.7-55.45-128.1-16.21-2.1,9.18-4.3,18.37-6.4,27.55,5.2,56.55,89.1,41.02,98.8,124.82,26.6,228.01-132.2,277.42-144.2,432.81q24.3,60.78,48.6,121.58c37.2,125.8,2.1,266.75-43.8,356.62-3.2,5.41-6.4,10.81-9.7,16.21q-47.85-15.39-95.6-30.8c-54.8-312.8-33.9-724.55,50.2-980.71,48.8-148.44,188.7-250.9,173.5-367.97C14732.6,5905.64,14913.8,5777.65,15034.1,5762.24Zm-565.7-413.36c70.3,97.44,85.3,238.98,197.8,307.99v14.59c-51.9,76.17-481,498.78-580.4,481.44-2.1-2.16-4.3-4.32-6.4-6.48,2.8-67.22,47.5-151.62,99.2-194.7,68.5-57.14,149.1-66.2,160.1-106.81,13.5-49.68-163.9-197.34-205.8-205.87q-64.05,14.58-128.1,29.18c-1.6-1.62-3.2-3.25-4.9-4.87,7.3-41.85,142.2-176.08,205.9-163.72,20.2,48.05,89.2,381.69,223.7,273.95,52.1-41.71-172.8-254.85-209.1-282.05,1.1-1.62,2.1-3.25,3.2-4.87C14245.9,5407.65,14369.9,5349.62,14468.4,5348.88Zm-2449.3-622.47c151-45.07,254-125.47,371.2-166.97,140.9-49.88,287.5-40.82,410.1-89.15q119.1-61.59,238.3-123.2,4.05,5.67,8.1,11.35c-132.8,437.47-187.8,152.69-517.1,264.22-86.3,29.21-111.1,128.81-180,175.07-88.4,59.37-304.3-10.07-351.7-48.63C12005,4741.54,12012,4733.97,12019.1,4726.41Z" transform="translate(-693.875 -344.281)"/>
</svg>
